<?xml version="1.0" encoding="UTF-8" standalone="no"?>
<!DOCTYPE svg PUBLIC "-//W3C//DTD SVG 1.1//EN" "http://www.w3.org/Graphics/SVG/1.1/DTD/svg11.dtd">
<svg width="100%" height="100%" viewBox="0 0 253 253" version="1.1" xmlns="http://www.w3.org/2000/svg" xmlns:xlink="http://www.w3.org/1999/xlink" xml:space="preserve" xmlns:serif="http://www.serif.com/" style="fill-rule:evenodd;clip-rule:evenodd;stroke-linejoin:round;stroke-miterlimit:2;">
    <g transform="matrix(1,0,0,1,-107.4,-647.4)">
        <g>
            <g transform="matrix(1.0525,0,0,1.0525,-18.9,394.8)">
                <circle cx="240" cy="360" r="120" style="fill:rgb(244,209,123);"/>
            </g>
            <g transform="matrix(1.17857,0,0,1.13793,-71.4286,-129.655)">
                <path d="M262.151,726.799L324.165,836.959L324.165,850.052C324.165,855.197 320.704,859.511 316.065,860.633L245.834,735.877L250.892,726.799L262.151,726.799ZM324.165,825.639L268.524,726.799L313.675,726.799C319.465,726.799 324.165,731.667 324.165,737.663L324.165,825.639ZM282.052,860.916L260.578,860.916L218.154,785.556L228.836,766.385L282.052,860.916ZM242.665,741.566L309.852,860.916L288.377,860.916L231.983,760.738L242.665,741.566ZM254.253,860.916L205.162,860.916C199.967,860.916 195.649,856.996 194.817,851.859L194.817,827.442L215.008,791.203L254.253,860.916Z" style="fill:rgb(26,26,26);"/>
            </g>
        </g>
    </g>
</svg>
