<?xml version="1.0" encoding="UTF-8" standalone="no"?>
<!DOCTYPE svg PUBLIC "-//W3C//DTD SVG 1.1//EN" "http://www.w3.org/Graphics/SVG/1.1/DTD/svg11.dtd">
<svg width="100%" height="100%" viewBox="0 0 253 253" version="1.1" xmlns="http://www.w3.org/2000/svg" xmlns:xlink="http://www.w3.org/1999/xlink" xml:space="preserve" xmlns:serif="http://www.serif.com/" style="fill-rule:evenodd;clip-rule:evenodd;stroke-linejoin:round;stroke-miterlimit:2;">
    <g transform="matrix(1,0,0,1,-431.7,-647.4)">
        <g>
            <g transform="matrix(1.0525,0,0,1.0525,305.4,394.8)">
                <circle cx="240" cy="360" r="120" style="fill:rgb(58,129,240);"/>
            </g>
            <path d="M634.223,791L577.603,791L629.92,700.383C632.554,702.651 634.223,706.01 634.223,709.755L634.223,791ZM540.207,773.994L550.377,756.379L569.306,756.379L579.638,774.274L569.981,791L550.704,791L540.716,773.7L540.207,773.994ZM584.772,850.008L554.514,797.6L634.223,797.6L634.223,837.645C634.223,844.468 628.683,850.008 621.86,850.008L584.772,850.008ZM489.241,849.07C485.37,847.465 482.489,843.949 481.777,839.701L481.777,815.408L515.857,756.379L542.756,756.379L489.241,849.07ZM623.927,697.564L583.449,767.674L546.392,703.491L549.914,697.392L621.86,697.392C622.564,697.392 623.255,697.451 623.927,697.564ZM542.582,710.091L565.496,749.779L519.668,749.779L542.582,710.091ZM496.32,850.008L536.736,780.006L577.151,850.008L496.32,850.008Z" style="fill:rgb(26,26,26);"/>
        </g>
    </g>
</svg>
