<?xml version="1.0" encoding="UTF-8" standalone="no"?>
<!DOCTYPE svg PUBLIC "-//W3C//DTD SVG 1.1//EN" "http://www.w3.org/Graphics/SVG/1.1/DTD/svg11.dtd">
<svg width="100%" height="100%" viewBox="0 0 253 253" version="1.1" xmlns="http://www.w3.org/2000/svg" xmlns:xlink="http://www.w3.org/1999/xlink" xml:space="preserve" xmlns:serif="http://www.serif.com/" style="fill-rule:evenodd;clip-rule:evenodd;stroke-linejoin:round;stroke-miterlimit:2;">
    <g transform="matrix(1,0,0,1,-431.8,-215.8)">
        <g>
            <g transform="matrix(1.0525,0,0,1.0525,305.5,-36.8)">
                <circle cx="240" cy="360" r="120" style="fill:rgb(42,165,227);"/>
            </g>
            <g transform="matrix(1,0,0,1,-1.13687e-13,-15)">
                <g transform="matrix(0.486111,0,0,0.486805,273.472,109.75)">
                    <ellipse cx="590" cy="377.974" rx="20" ry="17.974" style="fill:rgb(26,26,26);"/>
                </g>
                <g transform="matrix(0.569705,0,0,0.570518,165.824,112.113)">
                    <ellipse cx="590" cy="377.974" rx="20" ry="17.974" style="fill:rgb(26,26,26);"/>
                </g>
                <path d="M625.195,330.5L585,323L554.205,300.582L566.462,287L625.195,330.5Z" style="fill:rgb(26,26,26);"/>
                <g transform="matrix(0.864734,-0.640066,0.639946,0.864572,-172.596,432.647)">
                    <path d="M623.842,328.193L585.47,323.966L555.928,302.096L567.631,287.049L623.842,328.193Z" style="fill:rgb(26,26,26);"/>
                </g>
                <g transform="matrix(0.259337,-1.04412,1.04393,0.259288,25.2036,908.608)">
                    <path d="M628.801,331.437L592.786,329.108L558.248,305.598L569.776,286.928L628.801,331.437Z" style="fill:rgb(26,26,26);"/>
                </g>
                <g transform="matrix(0.625,0,0,0.625892,112.35,159.679)">
                    <ellipse cx="590" cy="377.974" rx="20" ry="17.974" style="fill:rgb(26,26,26);"/>
                </g>
                <g transform="matrix(3.19,0,0,3.19455,-1298.3,-833.279)">
                    <path d="M590,360C601.038,360 610,368.054 610,377.974C610,387.895 601.038,395.949 590,395.949C578.962,395.949 570,387.895 570,377.974C570,368.054 578.962,360 590,360ZM590,365.788C583.296,365.788 577.853,370.68 577.853,376.705C577.853,382.73 583.296,387.622 590,387.622C596.704,387.622 602.147,382.73 602.147,376.705C602.147,370.68 596.704,365.788 590,365.788ZM590,368.84C594.325,368.84 597.837,371.996 597.837,375.883C597.837,379.771 594.325,382.927 590,382.927C585.675,382.927 582.163,379.771 582.163,375.883C582.163,371.996 585.675,368.84 590,368.84Z" style="fill:rgb(26,26,26);"/>
                </g>
            </g>
        </g>
    </g>
</svg>
