<?xml version="1.0" encoding="UTF-8" standalone="no"?>
<!DOCTYPE svg PUBLIC "-//W3C//DTD SVG 1.1//EN" "http://www.w3.org/Graphics/SVG/1.1/DTD/svg11.dtd">
<svg width="100%" height="100%" viewBox="0 0 253 253" version="1.1" xmlns="http://www.w3.org/2000/svg" xmlns:xlink="http://www.w3.org/1999/xlink" xml:space="preserve" xmlns:serif="http://www.serif.com/" style="fill-rule:evenodd;clip-rule:evenodd;stroke-linejoin:round;stroke-miterlimit:2;">
    <g transform="matrix(1,0,0,1,-108.1,-215.8)">
        <g>
            <g transform="matrix(1.0525,0,0,1.0525,-18.2,-36.8)">
                <circle cx="240" cy="360" r="120" style="fill:rgb(195,132,83);"/>
            </g>
            <g>
                <g transform="matrix(1.11859,0,0,1.62727,-34.15,-235.582)">
                    <path d="M240,300L320,316.838L313.027,384.436L240,410L240,300ZM263.858,342.648L251.342,345.721L262.07,388.737L274.586,383.821L282.632,355L290.677,378.291L303.193,373.989L313.027,330.358L300.511,333.43L296.041,356.782L288.89,336.503L276.374,339.575L269.222,364.771L263.858,342.648Z" style="fill:rgb(26,26,26);"/>
                </g>
                <g transform="matrix(1.11859,0,0,1.62727,-123.637,-235.582)">
                    <path d="M320,300L320,410L320,335.274L239.978,316.838L320,300Z" style="fill:rgb(26,26,26);"/>
                </g>
                <path d="M245,256L244,314L234.4,310L212,299L230,254L234.312,252.6L245,256Z" style="fill:rgb(26,26,26);"/>
                <path d="M219,345C219,345 220.017,311.9 180,305C163.093,302.085 152.821,328.217 177,348C188,357 194,360 198,364C203,369 201.263,375.303 199,377C195,380 188.154,375.519 185,370C181,363 181,358 181,358L161,351C161,351 159.753,377.376 187,391C195,395 222,405 222,376C222,354.006 197.437,341.236 187,332.958C182.222,329.169 182,326 184,324C187,321 194,325 197,330C198.729,332.881 200.5,338.5 200.5,338.5L219,345Z" style="fill:rgb(26,26,26);"/>
            </g>
        </g>
    </g>
</svg>
