<?xml version="1.0" encoding="UTF-8" standalone="no"?>
<!DOCTYPE svg PUBLIC "-//W3C//DTD SVG 1.1//EN" "http://www.w3.org/Graphics/SVG/1.1/DTD/svg11.dtd">
<svg width="100%" height="100%" viewBox="0 0 253 253" version="1.1" xmlns="http://www.w3.org/2000/svg" xmlns:xlink="http://www.w3.org/1999/xlink" xml:space="preserve" xmlns:serif="http://www.serif.com/" style="fill-rule:evenodd;clip-rule:evenodd;stroke-linejoin:round;stroke-miterlimit:2;">
    <g transform="matrix(1,0,0,1,-1079.7,-647.4)">
        <g>
            <g transform="matrix(1.0525,0,0,1.0525,953.4,394.8)">
                <circle cx="240" cy="360" r="120" style="fill:rgb(246,248,249);"/>
            </g>
            <g transform="matrix(1.2876,0,0,1.2876,-360.712,-258.461)">
                <g transform="matrix(181.486,0,0,181.486,1140,840)">
                    <path d="M0.105,0.014C0.098,0.014 0.09,0.012 0.079,0.007C0.068,0.002 0.059,-0.005 0.052,-0.014C0.044,-0.023 0.04,-0.035 0.04,-0.048C0.041,-0.051 0.041,-0.055 0.042,-0.059C0.043,-0.062 0.044,-0.066 0.045,-0.069L0.154,-0.325C0.157,-0.332 0.157,-0.337 0.156,-0.341C0.154,-0.344 0.15,-0.346 0.143,-0.346C0.137,-0.346 0.127,-0.344 0.112,-0.34C0.096,-0.336 0.081,-0.326 0.064,-0.31C0.061,-0.307 0.057,-0.305 0.052,-0.306C0.046,-0.306 0.043,-0.309 0.043,-0.315C0.043,-0.32 0.046,-0.327 0.051,-0.336C0.056,-0.344 0.062,-0.352 0.069,-0.361C0.076,-0.37 0.082,-0.376 0.087,-0.38C0.105,-0.395 0.124,-0.409 0.143,-0.42C0.162,-0.431 0.189,-0.437 0.222,-0.437C0.239,-0.437 0.252,-0.432 0.262,-0.423C0.272,-0.413 0.278,-0.4 0.28,-0.385C0.281,-0.37 0.278,-0.354 0.271,-0.338L0.214,-0.21C0.212,-0.205 0.213,-0.203 0.217,-0.202C0.22,-0.201 0.223,-0.203 0.226,-0.208C0.25,-0.249 0.274,-0.286 0.297,-0.321C0.32,-0.356 0.343,-0.384 0.368,-0.405C0.393,-0.426 0.42,-0.437 0.449,-0.437C0.478,-0.437 0.498,-0.429 0.511,-0.412C0.523,-0.395 0.528,-0.374 0.527,-0.349C0.525,-0.324 0.517,-0.299 0.504,-0.276L0.495,-0.259C0.492,-0.254 0.494,-0.252 0.499,-0.251C0.503,-0.25 0.507,-0.252 0.51,-0.257C0.529,-0.287 0.548,-0.316 0.569,-0.343C0.59,-0.37 0.612,-0.393 0.636,-0.411C0.66,-0.428 0.687,-0.437 0.716,-0.437C0.745,-0.437 0.764,-0.429 0.774,-0.413C0.784,-0.396 0.788,-0.376 0.785,-0.351C0.782,-0.326 0.774,-0.301 0.763,-0.276L0.698,-0.127C0.69,-0.108 0.691,-0.098 0.701,-0.098C0.704,-0.098 0.709,-0.1 0.716,-0.103C0.722,-0.106 0.729,-0.111 0.736,-0.116C0.743,-0.121 0.75,-0.127 0.757,-0.132C0.764,-0.137 0.769,-0.142 0.773,-0.145C0.777,-0.149 0.781,-0.153 0.786,-0.157C0.79,-0.161 0.793,-0.163 0.796,-0.163C0.798,-0.163 0.8,-0.162 0.803,-0.159C0.805,-0.156 0.806,-0.153 0.806,-0.15C0.805,-0.143 0.804,-0.136 0.801,-0.129C0.798,-0.122 0.794,-0.116 0.789,-0.11C0.758,-0.074 0.723,-0.044 0.684,-0.021C0.645,0.002 0.605,0.014 0.565,0.014C0.559,0.014 0.551,0.012 0.542,0.008C0.532,0.003 0.524,-0.003 0.518,-0.01C0.511,-0.017 0.51,-0.025 0.514,-0.033L0.654,-0.335C0.659,-0.345 0.661,-0.353 0.658,-0.36C0.655,-0.366 0.65,-0.369 0.645,-0.369C0.636,-0.369 0.627,-0.363 0.616,-0.35C0.605,-0.337 0.593,-0.32 0.578,-0.298C0.565,-0.278 0.551,-0.254 0.534,-0.227C0.517,-0.199 0.5,-0.169 0.481,-0.138C0.462,-0.107 0.442,-0.075 0.421,-0.042C0.414,-0.032 0.405,-0.023 0.394,-0.014C0.383,-0.005 0.372,0.002 0.361,0.007C0.349,0.012 0.34,0.014 0.333,0.014C0.326,0.014 0.319,0.011 0.31,0.006C0.301,0.001 0.294,-0.006 0.288,-0.014C0.281,-0.021 0.278,-0.028 0.278,-0.035C0.278,-0.039 0.279,-0.044 0.28,-0.051C0.281,-0.058 0.284,-0.065 0.287,-0.074L0.398,-0.338C0.403,-0.348 0.404,-0.356 0.403,-0.362C0.401,-0.367 0.397,-0.37 0.39,-0.37C0.383,-0.37 0.372,-0.363 0.359,-0.349C0.345,-0.335 0.328,-0.314 0.309,-0.287C0.299,-0.272 0.289,-0.256 0.278,-0.237C0.267,-0.218 0.256,-0.198 0.245,-0.178C0.234,-0.157 0.222,-0.135 0.211,-0.113C0.199,-0.091 0.187,-0.069 0.175,-0.048C0.164,-0.028 0.153,-0.013 0.142,-0.002C0.131,0.009 0.118,0.014 0.105,0.014Z" style="fill:rgb(26,26,26);fill-rule:nonzero;"/>
                </g>
                <g transform="matrix(181.486,0,0,181.486,1292.45,840)">
                </g>
            </g>
        </g>
    </g>
</svg>
