<?xml version="1.0" encoding="utf-8"?>
<!-- Generator: Adobe Illustrator 27.5.0, SVG Export Plug-In . SVG Version: 6.00 Build 0)  -->
<svg version="1.1" xmlns="http://www.w3.org/2000/svg" xmlns:xlink="http://www.w3.org/1999/xlink" x="0px" y="0px"
	 viewBox="0 0 750 500" style="enable-background:new 0 0 750 500;" xml:space="preserve">
<g id="BACKGROUND">
	<rect style="fill:#FFFFF8;" width="750" height="500"/>
</g>
<g id="OBJECTS">
	<g>
		<defs>
			<rect id="SVGID_1_" width="750" height="500"/>
		</defs>
		<clipPath id="SVGID_00000043424644905010324660000007770975322889285028_">
			<use xlink:href="#SVGID_1_"  style="overflow:visible;"/>
		</clipPath>
		<g style="clip-path:url(#SVGID_00000043424644905010324660000007770975322889285028_);">
			<path style="fill:#ABD3BB;" d="M273,163c-35.532,44.883-123,52-55,122s115,38,179,73s149,27,161-46s-57.076-96.229-83-129
				C422,116,330,91,273,163z"/>
			<g>
				<path style="fill:#ABD3BB;" d="M0,125.381v326.417C93.893,402.008,141.718,326.122,133,254
					C124.028,179.779,85.119,202.009,0,125.381z"/>
				<path style="fill:#FFD5D4;" d="M532,123c30.361,80.524,156.124,113.118,218,53.23V0H345.292
					C390.65,38.431,493.647,21.283,532,123z"/>
				<path style="fill:#ABD3BB;" d="M750,500V321.237C643.51,367.114,756.283,475.375,641,456
					c-70.187-11.796-134.802,4.24-157.336,44H750z"/>
			</g>
			<g>
				<g>
					<path style="fill:#FFA02E;" d="M331.794,463.479c0,8.625-2.146,15.616-4.794,15.616c-2.648,0-4.795-6.991-4.795-15.616
						s2.146-15.616,4.795-15.616C329.647,447.863,331.794,454.854,331.794,463.479z"/>
					<path style="fill:#FFA02E;" d="M325.977,462.815c2.95,8.104,3.324,15.408,0.836,16.314c-2.488,0.905-6.897-4.931-9.847-13.035
						c-2.95-8.105-3.324-15.409-0.836-16.315C318.618,448.874,323.026,454.709,325.977,462.815z"/>
					<path style="fill:#FFA02E;" d="M320.282,464.18c5.544,6.606,8.394,13.342,6.365,15.044c-2.028,1.702-8.167-2.273-13.711-8.881
						c-5.544-6.607-8.393-13.343-6.365-15.045C308.6,453.596,314.738,457.572,320.282,464.18z"/>
					<path style="fill:#FFA02E;" d="M315.398,467.409c7.469,4.313,12.451,9.667,11.127,11.961
						c-1.324,2.292-8.452,0.656-15.922-3.656s-12.451-9.668-11.127-11.961C300.801,461.46,307.929,463.097,315.398,467.409z"/>
					<path style="fill:#FFA02E;" d="M311.914,472.115c8.493,1.497,15.006,4.825,14.546,7.434c-0.459,2.608-7.718,3.507-16.212,2.01
						c-8.494-1.498-15.006-4.826-14.547-7.434C296.161,471.517,303.42,470.617,311.914,472.115z"/>
					<path style="fill:#FFA02E;" d="M310.248,477.728c8.494-1.498,15.753-0.598,16.212,2.01c0.46,2.608-6.053,5.936-14.546,7.434
						c-8.494,1.498-15.753,0.598-16.213-2.01C295.242,482.554,301.754,479.227,310.248,477.728z"/>
					<path style="fill:#FFA02E;" d="M310.603,483.573c7.469-4.313,14.598-5.949,15.922-3.656c1.324,2.293-3.658,7.648-11.127,11.961
						c-7.47,4.313-14.598,5.949-15.922,3.656C298.152,493.241,303.135,487.886,310.603,483.573z"/>
					<path style="fill:#FFA02E;" d="M312.936,488.944c5.544-6.607,11.683-10.583,13.711-8.881c2.028,1.701-0.821,8.438-6.365,15.044
						c-5.544,6.607-11.683,10.584-13.711,8.882C304.543,502.287,307.393,495.551,312.936,488.944z"/>
					<path style="fill:#FFA02E;" d="M316.966,493.192c2.949-8.104,7.358-13.94,9.847-13.034c2.488,0.905,2.114,8.21-0.836,16.314
						c-2.95,8.105-7.358,13.94-9.847,13.035C313.643,508.602,314.016,501.298,316.966,493.192z"/>
					<path style="fill:#FFA02E;" d="M322.205,495.808c0-8.625,2.146-15.616,4.795-15.616c2.647,0,4.794,6.991,4.794,15.616
						s-2.146,15.616-4.794,15.616C324.352,511.424,322.205,504.433,322.205,495.808z"/>
					<path style="fill:#FFA02E;" d="M328.022,496.473c-2.95-8.104-3.323-15.409-0.835-16.314c2.488-0.906,6.897,4.93,9.847,13.035
						c2.949,8.105,3.323,15.409,0.835,16.314C335.381,510.413,330.973,504.577,328.022,496.473z"/>
					<path style="fill:#FFA02E;" d="M333.716,495.107c-5.543-6.606-8.393-13.343-6.364-15.044c2.028-1.703,8.167,2.273,13.711,8.881
						c5.545,6.607,8.394,13.343,6.365,15.045C345.399,505.69,339.261,501.715,333.716,495.107z"/>
					<path style="fill:#FFA02E;" d="M338.601,491.878c-7.469-4.313-12.45-9.668-11.126-11.961c1.323-2.293,8.451-0.656,15.921,3.656
						c7.47,4.313,12.451,9.668,11.127,11.961C353.198,497.827,346.07,496.19,338.601,491.878z"/>
					<path style="fill:#FFA02E;" d="M342.085,487.172c-8.493-1.497-15.006-4.825-14.546-7.434c0.46-2.607,7.718-3.508,16.212-2.01
						c8.494,1.497,15.007,4.825,14.547,7.434C357.838,487.77,350.579,488.669,342.085,487.172z"/>
					<path style="fill:#FFA02E;" d="M343.751,481.559c-8.493,1.497-15.752,0.598-16.212-2.01c-0.46-2.608,6.053-5.936,14.547-7.435
						c8.494-1.497,15.752-0.598,16.212,2.011C358.757,476.732,352.244,480.06,343.751,481.559z"/>
					<path style="fill:#FFA02E;" d="M343.396,475.714c-7.469,4.313-14.598,5.949-15.921,3.655
						c-1.324-2.293,3.657-7.647,11.127-11.961c7.469-4.311,14.597-5.948,15.922-3.655
						C355.846,466.046,350.864,471.4,343.396,475.714z"/>
					<path style="fill:#FFA02E;" d="M341.063,470.344c-5.543,6.605-11.683,10.582-13.711,8.88
						c-2.028-1.701,0.821-8.438,6.365-15.045c5.544-6.607,11.683-10.583,13.712-8.881C349.456,457,346.605,463.735,341.063,470.344z
						"/>
					<path style="fill:#FFA02E;" d="M337.034,466.095c-2.95,8.104-7.358,13.94-9.847,13.034c-2.488-0.905-2.115-8.21,0.835-16.315
						c2.95-8.104,7.358-13.94,9.848-13.034C340.357,450.685,339.982,457.989,337.034,466.095z"/>
					
						<ellipse transform="matrix(0.9148 -0.404 0.404 0.9148 -165.8913 172.9757)" style="fill:#FAC53D;" cx="327" cy="479.644" rx="13.356" ry="13.356"/>
				</g>
				<g>
					<path style="fill:#FFA02E;" d="M60.574,476.522c0,8.625-2.146,15.616-4.794,15.616c-2.648,0-4.795-6.991-4.795-15.616
						s2.146-15.616,4.795-15.616C58.428,460.906,60.574,467.897,60.574,476.522z"/>
					<path style="fill:#FFA02E;" d="M54.757,475.857c2.95,8.105,3.324,15.408,0.836,16.315c-2.488,0.905-6.896-4.931-9.847-13.035
						c-2.95-8.104-3.324-15.409-0.836-16.314C47.398,461.917,51.807,467.752,54.757,475.857z"/>
					<path style="fill:#FFA02E;" d="M49.063,477.223c5.544,6.606,8.394,13.342,6.365,15.044c-2.028,1.702-8.167-2.273-13.711-8.881
						c-5.544-6.607-8.394-13.343-6.365-15.045C37.38,466.639,43.519,470.615,49.063,477.223z"/>
					<path style="fill:#FFA02E;" d="M44.179,480.452c7.469,4.313,12.451,9.667,11.127,11.961c-1.324,2.292-8.452,0.656-15.922-3.656
						s-12.451-9.668-11.127-11.961C29.581,474.503,36.709,476.14,44.179,480.452z"/>
					<path style="fill:#FFA02E;" d="M40.694,485.158c8.493,1.497,15.006,4.825,14.546,7.434c-0.459,2.607-7.718,3.507-16.212,2.01
						c-8.494-1.498-15.006-4.826-14.547-7.434C24.941,484.56,32.2,483.66,40.694,485.158z"/>
					<path style="fill:#FFA02E;" d="M39.028,490.772c8.494-1.498,15.753-0.598,16.212,2.01c0.46,2.608-6.053,5.936-14.546,7.434
						c-8.494,1.498-15.753,0.598-16.213-2.01C24.022,495.597,30.534,492.27,39.028,490.772z"/>
					<path style="fill:#FFA02E;" d="M39.384,496.616c7.469-4.313,14.598-5.949,15.922-3.656c1.324,2.293-3.658,7.648-11.127,11.961
						c-7.47,4.313-14.598,5.949-15.922,3.656C26.933,506.284,31.915,500.929,39.384,496.616z"/>
					<path style="fill:#FFA02E;" d="M41.717,501.987c5.544-6.607,11.683-10.583,13.711-8.881c2.028,1.701-0.821,8.438-6.365,15.044
						c-5.544,6.607-11.683,10.584-13.711,8.882C33.323,515.33,36.173,508.594,41.717,501.987z"/>
					<path style="fill:#FFA02E;" d="M45.746,506.235c2.949-8.104,7.358-13.941,9.847-13.034c2.488,0.905,2.114,8.21-0.836,16.314
						c-2.95,8.105-7.358,13.941-9.847,13.035C42.423,521.644,42.796,514.341,45.746,506.235z"/>
					<path style="fill:#FFA02E;" d="M50.985,508.851c0-8.625,2.146-15.616,4.795-15.616c2.647,0,4.794,6.991,4.794,15.616
						s-2.146,15.616-4.794,15.616C53.132,524.467,50.985,517.476,50.985,508.851z"/>
					<path style="fill:#FFA02E;" d="M56.803,509.516c-2.95-8.104-3.323-15.409-0.835-16.314c2.488-0.906,6.896,4.93,9.847,13.035
						c2.949,8.105,3.323,15.409,0.835,16.314C64.161,523.456,59.753,517.62,56.803,509.516z"/>
					<path style="fill:#FFA02E;" d="M62.496,508.15c-5.543-6.606-8.393-13.343-6.364-15.044c2.028-1.703,8.167,2.273,13.711,8.881
						c5.545,6.607,8.394,13.343,6.365,15.045C74.18,518.733,68.041,514.758,62.496,508.15z"/>
					<path style="fill:#FFA02E;" d="M67.381,504.921c-7.469-4.313-12.45-9.668-11.126-11.961c1.323-2.293,8.451-0.656,15.921,3.656
						c7.47,4.313,12.451,9.668,11.127,11.961C81.979,510.87,74.851,509.232,67.381,504.921z"/>
					<path style="fill:#FFA02E;" d="M70.865,500.215c-8.493-1.497-15.006-4.825-14.546-7.434c0.46-2.608,7.718-3.508,16.212-2.01
						c8.494,1.497,15.007,4.825,14.547,7.434C86.618,500.813,79.359,501.712,70.865,500.215z"/>
					<path style="fill:#FFA02E;" d="M72.531,494.602c-8.493,1.497-15.752,0.598-16.212-2.01c-0.46-2.608,6.053-5.936,14.547-7.435
						c8.494-1.497,15.752-0.598,16.212,2.011C87.537,489.775,81.024,493.103,72.531,494.602z"/>
					<path style="fill:#FFA02E;" d="M72.176,488.757c-7.469,4.313-14.598,5.949-15.921,3.655
						c-1.324-2.293,3.657-7.648,11.127-11.961c7.469-4.312,14.597-5.948,15.922-3.655C84.626,479.089,79.645,484.443,72.176,488.757
						z"/>
					<path style="fill:#FFA02E;" d="M69.843,483.387c-5.543,6.605-11.683,10.582-13.711,8.88c-2.028-1.701,0.821-8.438,6.365-15.045
						c5.544-6.607,11.683-10.583,13.712-8.881C78.236,470.043,75.386,476.778,69.843,483.387z"/>
					<path style="fill:#FFA02E;" d="M65.814,479.138c-2.95,8.104-7.358,13.94-9.847,13.034c-2.488-0.905-2.115-8.21,0.835-16.315
						c2.95-8.104,7.358-13.939,9.848-13.034C69.138,463.728,68.763,471.032,65.814,479.138z"/>
					
						<ellipse transform="matrix(0.7071 -0.7071 0.7071 0.7071 -332.0443 183.7471)" style="fill:#FAC53D;" cx="55.78" cy="492.687" rx="13.356" ry="13.356"/>
				</g>
				<g>
					<path style="fill:#FFA02E;" d="M76.574,13.523c0,8.625-2.147,15.616-4.794,15.616c-2.648,0-4.795-6.991-4.795-15.616
						c0-8.625,2.146-15.616,4.795-15.616C74.428-2.094,76.574,4.897,76.574,13.523z"/>
					<path style="fill:#FFA02E;" d="M70.757,12.857c2.95,8.105,3.324,15.408,0.836,16.314c-2.488,0.905-6.896-4.931-9.847-13.035
						c-2.95-8.104-3.324-15.409-0.836-16.314C63.398-1.083,67.807,4.752,70.757,12.857z"/>
					<path style="fill:#FFA02E;" d="M65.063,14.223c5.544,6.606,8.394,13.342,6.365,15.044c-2.028,1.702-8.167-2.273-13.711-8.881
						c-5.544-6.607-8.394-13.343-6.365-15.045C53.38,3.639,59.519,7.615,65.063,14.223z"/>
					<path style="fill:#FFA02E;" d="M60.179,17.452c7.469,4.313,12.451,9.667,11.127,11.961c-1.324,2.292-8.452,0.656-15.922-3.656
						s-12.451-9.668-11.127-11.961C45.581,11.503,52.709,13.14,60.179,17.452z"/>
					<path style="fill:#FFA02E;" d="M56.694,22.158c8.493,1.497,15.006,4.825,14.546,7.434c-0.459,2.607-7.718,3.507-16.212,2.01
						c-8.494-1.498-15.006-4.826-14.547-7.434C40.941,21.56,48.2,20.66,56.694,22.158z"/>
					<path style="fill:#FFA02E;" d="M55.028,27.771c8.494-1.498,15.753-0.598,16.212,2.01c0.46,2.608-6.053,5.937-14.546,7.434
						c-8.494,1.498-15.753,0.598-16.213-2.01C40.022,32.597,46.534,29.27,55.028,27.771z"/>
					<path style="fill:#FFA02E;" d="M55.384,33.616c7.469-4.313,14.598-5.949,15.922-3.656c1.324,2.293-3.658,7.648-11.127,11.961
						c-7.47,4.313-14.598,5.949-15.922,3.656C42.933,43.284,47.915,37.929,55.384,33.616z"/>
					<path style="fill:#FFA02E;" d="M57.717,38.987c5.544-6.607,11.683-10.583,13.711-8.881c2.028,1.701-0.821,8.438-6.365,15.044
						c-5.544,6.607-11.683,10.584-13.711,8.882C49.323,52.33,52.173,45.594,57.717,38.987z"/>
					<path style="fill:#FFA02E;" d="M61.746,43.235c2.949-8.104,7.358-13.941,9.847-13.034c2.488,0.905,2.114,8.21-0.836,16.314
						c-2.95,8.106-7.358,13.941-9.847,13.035C58.423,58.645,58.796,51.341,61.746,43.235z"/>
					<path style="fill:#FFA02E;" d="M66.985,45.851c0-8.625,2.146-15.616,4.795-15.616c2.647,0,4.794,6.991,4.794,15.616
						s-2.147,15.616-4.794,15.616C69.132,61.467,66.985,54.476,66.985,45.851z"/>
					<path style="fill:#FFA02E;" d="M72.803,46.516c-2.95-8.104-3.323-15.409-0.835-16.314c2.488-0.906,6.897,4.93,9.847,13.035
						c2.949,8.104,3.323,15.409,0.835,16.314C80.161,60.456,75.753,54.62,72.803,46.516z"/>
					<path style="fill:#FFA02E;" d="M78.496,45.15c-5.543-6.606-8.393-13.343-6.364-15.044c2.028-1.703,8.167,2.274,13.711,8.881
						c5.545,6.606,8.394,13.343,6.365,15.045C90.18,55.733,84.041,51.758,78.496,45.15z"/>
					<path style="fill:#FFA02E;" d="M83.381,41.921c-7.469-4.313-12.45-9.668-11.126-11.961c1.323-2.293,8.451-0.656,15.921,3.656
						c7.47,4.313,12.451,9.668,11.127,11.961C97.979,47.87,90.851,46.232,83.381,41.921z"/>
					<path style="fill:#FFA02E;" d="M86.865,37.215c-8.493-1.497-15.006-4.825-14.546-7.434c0.46-2.608,7.718-3.508,16.212-2.01
						c8.494,1.497,15.007,4.825,14.547,7.434C102.618,37.813,95.359,38.712,86.865,37.215z"/>
					<path style="fill:#FFA02E;" d="M88.531,31.602c-8.493,1.497-15.752,0.598-16.212-2.01c-0.46-2.608,6.053-5.937,14.547-7.435
						c8.494-1.497,15.752-0.598,16.212,2.011C103.537,26.775,97.024,30.104,88.531,31.602z"/>
					<path style="fill:#FFA02E;" d="M88.176,25.757c-7.469,4.313-14.598,5.949-15.921,3.655c-1.324-2.293,3.657-7.647,11.127-11.961
						c7.469-4.312,14.597-5.948,15.922-3.655C100.626,16.089,95.645,21.443,88.176,25.757z"/>
					<path style="fill:#FFA02E;" d="M85.843,20.387c-5.543,6.606-11.683,10.582-13.711,8.88c-2.028-1.701,0.821-8.438,6.365-15.045
						C84.041,7.614,90.18,3.639,92.209,5.341C94.236,7.043,91.386,13.778,85.843,20.387z"/>
					<path style="fill:#FFA02E;" d="M81.814,16.138c-2.95,8.104-7.358,13.94-9.847,13.034c-2.488-0.905-2.115-8.21,0.835-16.316
						c2.95-8.104,7.358-13.939,9.848-13.034C85.138,0.729,84.763,8.032,81.814,16.138z"/>
					
						<ellipse transform="matrix(0.7071 -0.7071 0.7071 0.7071 0.0324 59.4513)" style="fill:#FAC53D;" cx="71.78" cy="29.687" rx="13.356" ry="13.356"/>
				</g>
				<g>
					<path style="fill:#FFA02E;" d="M433.589,5.672c0,8.625-2.147,15.616-4.794,15.616c-2.648,0-4.795-6.991-4.795-15.616
						c0-8.625,2.146-15.616,4.795-15.616C431.442-9.944,433.589-2.953,433.589,5.672z"/>
					<path style="fill:#FFA02E;" d="M427.771,5.007c2.95,8.104,3.324,15.408,0.836,16.314c-2.488,0.905-6.896-4.931-9.847-13.035
						c-2.95-8.104-3.324-15.409-0.836-16.314C420.413-8.934,424.821-3.099,427.771,5.007z"/>
					<path style="fill:#FFA02E;" d="M422.077,6.372c5.544,6.606,8.394,13.342,6.365,15.044c-2.028,1.702-8.167-2.273-13.711-8.881
						c-5.544-6.607-8.393-13.343-6.365-15.045C410.395-4.212,416.533-0.235,422.077,6.372z"/>
					<path style="fill:#FFA02E;" d="M417.193,9.602c7.469,4.313,12.451,9.667,11.127,11.961c-1.324,2.292-8.452,0.656-15.922-3.656
						c-7.47-4.313-12.451-9.668-11.127-11.961C402.596,3.652,409.724,5.289,417.193,9.602z"/>
					<path style="fill:#FFA02E;" d="M413.709,14.308c8.493,1.497,15.006,4.825,14.546,7.434c-0.459,2.607-7.718,3.507-16.212,2.01
						c-8.494-1.498-15.006-4.826-14.547-7.434C397.956,13.709,405.215,12.81,413.709,14.308z"/>
					<path style="fill:#FFA02E;" d="M412.043,19.921c8.494-1.498,15.753-0.598,16.212,2.01c0.46,2.608-6.053,5.937-14.546,7.434
						c-8.494,1.498-15.753,0.598-16.213-2.01C397.037,24.746,403.549,21.419,412.043,19.921z"/>
					<path style="fill:#FFA02E;" d="M412.398,25.766c7.469-4.313,14.598-5.949,15.922-3.656c1.324,2.293-3.658,7.648-11.127,11.961
						c-7.47,4.313-14.598,5.949-15.922,3.656C399.947,35.434,404.93,30.078,412.398,25.766z"/>
					<path style="fill:#FFA02E;" d="M414.731,31.137c5.544-6.607,11.683-10.583,13.711-8.881c2.028,1.701-0.821,8.438-6.365,15.044
						c-5.544,6.607-11.683,10.584-13.711,8.882C406.338,44.479,409.188,37.743,414.731,31.137z"/>
					<path style="fill:#FFA02E;" d="M418.761,35.385c2.949-8.104,7.358-13.941,9.847-13.034c2.488,0.905,2.114,8.21-0.836,16.314
						c-2.95,8.105-7.358,13.94-9.847,13.035C415.438,50.794,415.81,43.49,418.761,35.385z"/>
					<path style="fill:#FFA02E;" d="M424,38c0-8.625,2.146-15.616,4.795-15.616c2.647,0,4.794,6.991,4.794,15.616
						s-2.147,15.616-4.794,15.616C426.146,53.616,424,46.625,424,38z"/>
					<path style="fill:#FFA02E;" d="M429.817,38.665c-2.95-8.105-3.323-15.409-0.835-16.314c2.488-0.906,6.897,4.93,9.847,13.035
						c2.949,8.104,3.323,15.409,0.835,16.314C437.176,52.605,432.768,46.77,429.817,38.665z"/>
					<path style="fill:#FFA02E;" d="M435.511,37.3c-5.543-6.606-8.392-13.343-6.364-15.044c2.028-1.703,8.167,2.273,13.711,8.881
						c5.545,6.606,8.394,13.343,6.365,15.045C447.194,47.883,441.056,43.907,435.511,37.3z"/>
					<path style="fill:#FFA02E;" d="M440.395,34.07c-7.469-4.313-12.45-9.668-11.126-11.961c1.323-2.293,8.451-0.656,15.921,3.656
						c7.47,4.313,12.451,9.668,11.127,11.961C454.993,40.02,447.865,38.382,440.395,34.07z"/>
					<path style="fill:#FFA02E;" d="M443.88,29.364c-8.493-1.497-15.006-4.825-14.546-7.434c0.46-2.608,7.718-3.508,16.212-2.01
						c8.494,1.497,15.007,4.825,14.547,7.434C459.633,29.962,452.374,30.861,443.88,29.364z"/>
					<path style="fill:#FFA02E;" d="M445.546,23.751c-8.493,1.497-15.752,0.598-16.212-2.01c-0.46-2.608,6.053-5.936,14.547-7.435
						c8.494-1.497,15.752-0.598,16.212,2.011C460.552,18.925,454.039,22.253,445.546,23.751z"/>
					<path style="fill:#FFA02E;" d="M445.19,17.906c-7.469,4.313-14.598,5.949-15.921,3.655c-1.324-2.293,3.657-7.647,11.127-11.961
						c7.469-4.312,14.597-5.948,15.922-3.655C457.641,8.238,452.659,13.593,445.19,17.906z"/>
					<path style="fill:#FFA02E;" d="M442.857,12.536c-5.543,6.605-11.683,10.582-13.711,8.88c-2.028-1.701,0.821-8.438,6.365-15.045
						c5.544-6.607,11.683-10.583,13.712-8.881C451.251-0.808,448.4,5.928,442.857,12.536z"/>
					<path style="fill:#FFA02E;" d="M438.829,8.287c-2.95,8.103-7.358,13.94-9.847,13.034c-2.488-0.905-2.115-8.21,0.835-16.315
						c2.95-8.104,7.358-13.939,9.848-13.034C442.152-7.122,441.777,0.182,438.829,8.287z"/>
					
						<ellipse transform="matrix(0.1999 -0.9798 0.9798 0.1999 321.6703 437.6077)" style="fill:#FAC53D;" cx="428.795" cy="21.836" rx="13.356" ry="13.356"/>
				</g>
				<g>
					<path style="fill:#FFA02E;" d="M737.589,164.672c0,8.625-2.146,15.616-4.794,15.616c-2.648,0-4.795-6.991-4.795-15.616
						s2.146-15.616,4.795-15.616C735.442,149.056,737.589,156.047,737.589,164.672z"/>
					<path style="fill:#FFA02E;" d="M731.771,164.007c2.95,8.104,3.324,15.408,0.836,16.314c-2.488,0.905-6.896-4.931-9.847-13.035
						c-2.95-8.105-3.324-15.409-0.836-16.314C724.413,150.066,728.821,155.901,731.771,164.007z"/>
					<path style="fill:#FFA02E;" d="M726.077,165.372c5.544,6.606,8.394,13.342,6.365,15.044c-2.028,1.702-8.167-2.273-13.711-8.881
						c-5.544-6.607-8.393-13.343-6.365-15.045C714.394,154.788,720.533,158.765,726.077,165.372z"/>
					<path style="fill:#FFA02E;" d="M721.193,168.602c7.469,4.313,12.451,9.667,11.127,11.961
						c-1.324,2.292-8.452,0.656-15.922-3.656c-7.47-4.313-12.451-9.668-11.127-11.961S713.724,164.289,721.193,168.602z"/>
					<path style="fill:#FFA02E;" d="M717.709,173.308c8.493,1.497,15.006,4.825,14.546,7.434c-0.459,2.607-7.718,3.507-16.212,2.01
						c-8.494-1.498-15.006-4.826-14.547-7.434C701.956,172.709,709.215,171.81,717.709,173.308z"/>
					<path style="fill:#FFA02E;" d="M716.043,178.921c8.494-1.498,15.753-0.598,16.212,2.01c0.46,2.608-6.053,5.937-14.546,7.434
						c-8.494,1.498-15.753,0.598-16.213-2.01C701.037,183.746,707.549,180.419,716.043,178.921z"/>
					<path style="fill:#FFA02E;" d="M716.398,184.766c7.469-4.313,14.598-5.949,15.922-3.656c1.324,2.293-3.658,7.648-11.127,11.961
						c-7.47,4.313-14.598,5.949-15.922,3.656C703.947,194.434,708.93,189.078,716.398,184.766z"/>
					<path style="fill:#FFA02E;" d="M718.731,190.137c5.544-6.607,11.683-10.583,13.711-8.881c2.028,1.701-0.821,8.438-6.365,15.044
						c-5.544,6.607-11.683,10.584-13.711,8.882C710.338,203.48,713.188,196.743,718.731,190.137z"/>
					<path style="fill:#FFA02E;" d="M722.761,194.385c2.949-8.104,7.358-13.94,9.847-13.034c2.488,0.905,2.114,8.21-0.836,16.314
						c-2.95,8.105-7.358,13.941-9.847,13.035C719.438,209.794,719.81,202.49,722.761,194.385z"/>
					<path style="fill:#FFA02E;" d="M728,197c0-8.625,2.146-15.616,4.795-15.616c2.648,0,4.794,6.991,4.794,15.616
						s-2.146,15.616-4.794,15.616C730.146,212.616,728,205.625,728,197z"/>
					<path style="fill:#FFA02E;" d="M733.817,197.665c-2.95-8.104-3.323-15.409-0.835-16.314c2.488-0.906,6.897,4.93,9.847,13.035
						c2.949,8.105,3.323,15.409,0.835,16.314C741.176,211.605,736.768,205.77,733.817,197.665z"/>
					<path style="fill:#FFA02E;" d="M739.511,196.3c-5.543-6.606-8.393-13.343-6.364-15.044c2.028-1.703,8.167,2.273,13.711,8.881
						c5.545,6.606,8.394,13.343,6.365,15.045C751.194,206.883,745.056,202.907,739.511,196.3z"/>
					<path style="fill:#FFA02E;" d="M744.396,193.07c-7.469-4.313-12.45-9.668-11.126-11.961c1.323-2.293,8.451-0.656,15.921,3.656
						c7.47,4.313,12.451,9.668,11.127,11.961C758.993,199.02,751.865,197.382,744.396,193.07z"/>
					<path style="fill:#FFA02E;" d="M747.88,188.364c-8.493-1.497-15.006-4.825-14.546-7.434c0.46-2.607,7.718-3.508,16.212-2.01
						c8.494,1.497,15.007,4.825,14.547,7.434C763.633,188.962,756.374,189.861,747.88,188.364z"/>
					<path style="fill:#FFA02E;" d="M749.546,182.751c-8.493,1.497-15.752,0.598-16.212-2.01c-0.46-2.608,6.053-5.936,14.547-7.435
						c8.494-1.497,15.752-0.598,16.212,2.011C764.552,177.925,758.039,181.253,749.546,182.751z"/>
					<path style="fill:#FFA02E;" d="M749.19,176.906c-7.469,4.313-14.598,5.949-15.921,3.655
						c-1.324-2.293,3.657-7.647,11.127-11.961c7.469-4.312,14.597-5.948,15.922-3.655
						C761.641,167.238,756.659,172.593,749.19,176.906z"/>
					<path style="fill:#FFA02E;" d="M746.857,171.536c-5.543,6.605-11.683,10.582-13.711,8.88
						c-2.028-1.701,0.821-8.438,6.365-15.045c5.544-6.607,11.683-10.583,13.712-8.881
						C755.251,158.192,752.4,164.928,746.857,171.536z"/>
					<path style="fill:#FFA02E;" d="M742.829,167.287c-2.95,8.104-7.358,13.94-9.847,13.034c-2.488-0.905-2.115-8.21,0.835-16.315
						c2.95-8.105,7.358-13.939,9.848-13.034C746.152,151.878,745.777,159.182,742.829,167.287z"/>
					
						<ellipse transform="matrix(0.2284 -0.9736 0.9736 0.2284 389.3372 852.9421)" style="fill:#FAC53D;" cx="732.795" cy="180.836" rx="13.356" ry="13.356"/>
				</g>
				<g>
					<path style="fill:#FFA02E;" d="M654.589,471.672c0,8.625-2.146,15.616-4.794,15.616c-2.648,0-4.795-6.991-4.795-15.616
						s2.146-15.616,4.795-15.616C652.442,456.056,654.589,463.047,654.589,471.672z"/>
					<path style="fill:#FFA02E;" d="M648.771,471.007c2.95,8.104,3.324,15.408,0.836,16.314c-2.488,0.905-6.896-4.931-9.847-13.035
						s-3.324-15.409-0.836-16.314C641.413,457.066,645.821,462.901,648.771,471.007z"/>
					<path style="fill:#FFA02E;" d="M643.077,472.372c5.544,6.606,8.394,13.342,6.365,15.044c-2.028,1.702-8.167-2.273-13.711-8.881
						c-5.544-6.607-8.393-13.343-6.365-15.045C631.394,461.788,637.533,465.765,643.077,472.372z"/>
					<path style="fill:#FFA02E;" d="M638.193,475.602c7.469,4.313,12.451,9.667,11.127,11.961
						c-1.324,2.292-8.452,0.656-15.922-3.656c-7.47-4.313-12.451-9.668-11.127-11.961S630.724,471.289,638.193,475.602z"/>
					<path style="fill:#FFA02E;" d="M634.709,480.308c8.493,1.497,15.006,4.825,14.546,7.434c-0.459,2.607-7.718,3.507-16.212,2.01
						c-8.494-1.498-15.006-4.826-14.547-7.434C618.956,479.709,626.215,478.81,634.709,480.308z"/>
					<path style="fill:#FFA02E;" d="M633.043,485.921c8.494-1.498,15.753-0.598,16.212,2.01c0.46,2.608-6.053,5.936-14.546,7.434
						c-8.494,1.498-15.753,0.598-16.213-2.01C618.037,490.746,624.549,487.419,633.043,485.921z"/>
					<path style="fill:#FFA02E;" d="M633.398,491.766c7.469-4.313,14.598-5.949,15.922-3.656c1.324,2.293-3.658,7.648-11.127,11.961
						c-7.47,4.313-14.598,5.949-15.922,3.656C620.947,501.434,625.93,496.078,633.398,491.766z"/>
					<path style="fill:#FFA02E;" d="M635.731,497.137c5.544-6.607,11.683-10.583,13.711-8.881c2.028,1.701-0.821,8.438-6.365,15.044
						c-5.544,6.607-11.683,10.584-13.711,8.882C627.338,510.479,630.188,503.743,635.731,497.137z"/>
					<path style="fill:#FFA02E;" d="M639.761,501.385c2.949-8.103,7.358-13.94,9.847-13.034c2.488,0.905,2.114,8.21-0.836,16.314
						c-2.95,8.105-7.358,13.941-9.847,13.035C636.438,516.794,636.81,509.49,639.761,501.385z"/>
					<path style="fill:#FFA02E;" d="M645,504c0-8.625,2.146-15.616,4.795-15.616c2.648,0,4.794,6.991,4.794,15.616
						s-2.146,15.616-4.794,15.616C647.146,519.616,645,512.625,645,504z"/>
					<path style="fill:#FFA02E;" d="M650.817,504.665c-2.95-8.105-3.323-15.409-0.835-16.314c2.488-0.906,6.897,4.93,9.847,13.035
						c2.949,8.104,3.323,15.409,0.835,16.314C658.176,518.606,653.768,512.769,650.817,504.665z"/>
					<path style="fill:#FFA02E;" d="M656.511,503.3c-5.543-6.606-8.393-13.343-6.364-15.044c2.028-1.703,8.167,2.273,13.711,8.881
						c5.545,6.607,8.394,13.343,6.365,15.045C668.194,513.883,662.056,509.907,656.511,503.3z"/>
					<path style="fill:#FFA02E;" d="M661.396,500.07c-7.469-4.313-12.45-9.668-11.126-11.961c1.323-2.293,8.451-0.656,15.921,3.656
						c7.47,4.313,12.451,9.668,11.127,11.961C675.993,506.02,668.865,504.382,661.396,500.07z"/>
					<path style="fill:#FFA02E;" d="M664.88,495.364c-8.493-1.497-15.006-4.825-14.546-7.434c0.46-2.607,7.718-3.508,16.212-2.01
						c8.494,1.497,15.007,4.825,14.547,7.434C680.633,495.962,673.374,496.861,664.88,495.364z"/>
					<path style="fill:#FFA02E;" d="M666.546,489.751c-8.493,1.497-15.752,0.598-16.212-2.01c-0.46-2.608,6.053-5.937,14.547-7.435
						c8.494-1.497,15.752-0.598,16.212,2.011C681.552,484.925,675.039,488.253,666.546,489.751z"/>
					<path style="fill:#FFA02E;" d="M666.19,483.906c-7.469,4.313-14.598,5.949-15.921,3.655
						c-1.324-2.293,3.657-7.647,11.127-11.961c7.469-4.311,14.597-5.948,15.922-3.655
						C678.641,474.238,673.659,479.593,666.19,483.906z"/>
					<path style="fill:#FFA02E;" d="M663.857,478.536c-5.543,6.605-11.683,10.582-13.711,8.88
						c-2.028-1.701,0.821-8.438,6.365-15.045c5.544-6.607,11.683-10.583,13.712-8.881
						C672.251,465.192,669.4,471.928,663.857,478.536z"/>
					<path style="fill:#FFA02E;" d="M659.829,474.287c-2.95,8.103-7.358,13.94-9.847,13.034c-2.488-0.905-2.115-8.21,0.835-16.315
						c2.95-8.104,7.358-13.939,9.848-13.034C663.152,458.878,662.777,466.182,659.829,474.287z"/>
					
						<ellipse transform="matrix(0.2284 -0.9736 0.9736 0.2284 26.4163 1009.0042)" style="fill:#FAC53D;" cx="649.795" cy="487.836" rx="13.356" ry="13.356"/>
				</g>
			</g>
			<g>
				<g>
					<path style="fill:none;stroke:#528669;stroke-width:3;stroke-linecap:round;stroke-miterlimit:10;" d="M-16.03,206.328
						c0,0,18.878-107.182,112.973-121.231"/>
					<path style="fill:#528669;" d="M110.155,78.611c0,0-9.664,14.245-21.37,17.98c-11.707,3.736-19.275,1.028-21.025-4.453
						c-1.749-5.48,2.984-11.658,14.691-15.394C94.159,73.009,110.155,78.611,110.155,78.611z"/>
					<path style="fill:#528669;" d="M95.525,135.281c0,0-16.086,6.127-27.819,2.472c-11.732-3.654-16.379-10.212-14.668-15.706
						c1.711-5.493,9.132-7.839,20.864-4.185C85.634,121.518,95.525,135.281,95.525,135.281z"/>
					<path style="fill:#528669;" d="M31.067,56.065c0,0,4.406,16.64-0.459,27.924c-4.864,11.284-11.874,15.218-17.157,12.94
						c-5.284-2.277-6.838-9.903-1.974-21.188C16.341,64.458,31.067,56.065,31.067,56.065z"/>
					<path style="fill:#528669;" d="M-20.677,94.135c0,0,11.344-0.827,18.078,3.71c6.733,4.538,8.431,9.57,6.307,12.722
						c-2.125,3.153-7.267,3.231-14-1.307C-17.026,104.723-20.677,94.135-20.677,94.135z"/>
					<path style="fill:none;stroke:#528669;stroke-width:3;stroke-linecap:round;stroke-miterlimit:10;" d="M22.09,127.182
						c0,0,12.565-12.257,47.912,0.266"/>
					<path style="fill:none;stroke:#528669;stroke-width:3;stroke-linecap:round;stroke-miterlimit:10;" d="M22.15,77.606
						c0,0-19.78,38.611-11.742,65.329"/>
					<path style="fill:none;stroke:#528669;stroke-width:3;stroke-linecap:round;stroke-miterlimit:10;" d="M-1.945,105.936
						c0,0,7.899,4.655,11.065,12.938"/>
					<path style="fill:#528669;" d="M49.594,63.561c0,0,8.014,8.071,8.954,16.137c0.939,8.065-1.774,12.63-5.55,13.069
						c-3.776,0.441-7.184-3.411-8.123-11.476C43.936,73.225,49.594,63.561,49.594,63.561z"/>
					<path style="fill:none;stroke:#528669;stroke-width:3;stroke-linecap:round;stroke-miterlimit:10;" d="M52.833,85.462
						c0,0,1.609,9.026-2.615,16.821"/>
					<path style="fill:#528669;" d="M44.648,146.446c0,0-8.862-7.129-16.98-7.226c-8.12-0.094-12.377,3.081-12.422,6.882
						c-0.044,3.801,4.141,6.788,12.261,6.883C35.626,153.08,44.648,146.446,44.648,146.446z"/>
					<path style="fill:none;stroke:#528669;stroke-width:3;stroke-linecap:round;stroke-miterlimit:10;" d="M22.529,145.505
						c0,0-9.145-0.662-16.458,4.352"/>
				</g>
				<g>
					<path style="fill:none;stroke:#528669;stroke-width:3;stroke-linecap:round;stroke-miterlimit:10;" d="M267.294,532.796
						c0,0-99.065-45.061-89.157-139.682"/>
					<path style="fill:#528669;" d="M175.159,378.7c0,0,11.378,12.916,12.069,25.185c0.692,12.27-3.82,18.921-9.564,19.245
						c-5.744,0.324-10.542-5.803-11.234-18.071C165.737,392.789,175.159,378.7,175.159,378.7z"/>
					<path style="fill:#528669;" d="M226.376,407.026c0,0,1.913,17.107-4.558,27.554c-6.469,10.447-13.981,13.309-18.874,10.279
						c-4.89-3.029-5.307-10.801,1.163-21.247C210.578,413.165,226.376,407.026,226.376,407.026z"/>
					<path style="fill:#528669;" d="M133.566,449.646c0,0,17.213-0.107,26.924,7.422c9.71,7.53,11.768,15.3,8.243,19.847
						c-3.525,4.547-11.298,4.147-21.009-3.383C138.013,466.001,133.566,449.646,133.566,449.646z"/>
					<path style="fill:#528669;" d="M157.499,509.261c0,0,2.034-11.191,8.11-16.577c6.076-5.386,11.373-5.772,13.894-2.928
						c2.522,2.846,1.313,7.844-4.764,13.23C168.664,508.371,157.499,509.261,157.499,509.261z"/>
					<path style="fill:none;stroke:#528669;stroke-width:3;stroke-linecap:round;stroke-miterlimit:10;" d="M200.185,476.108
						c0,0-8.73-15.229,12.229-46.326"/>
					<path style="fill:none;stroke:#528669;stroke-width:3;stroke-linecap:round;stroke-miterlimit:10;" d="M152.196,463.662
						c0,0,32.444,28.801,60.324,27.693"/>
					<path style="fill:none;stroke:#528669;stroke-width:3;stroke-linecap:round;stroke-miterlimit:10;" d="M173.606,494.071
						c0,0,6.48-6.485,15.292-7.48"/>
					<path style="fill:#528669;" d="M145.454,433.579c0,0,9.817-5.743,17.862-4.638c8.043,1.105,11.785,4.874,11.267,8.64
						c-0.517,3.767-5.097,6.104-13.142,4.998C153.398,441.473,145.454,433.579,145.454,433.579z"/>
					<path style="fill:none;stroke:#528669;stroke-width:3;stroke-linecap:round;stroke-miterlimit:10;" d="M167.469,435.915
						c0,0,9.142,0.697,15.635,6.735"/>
					<path style="fill:#528669;" d="M224.474,459.079c0,0-9.117,6.8-11.24,14.636c-2.12,7.839-0.109,12.754,3.561,13.748
						c3.669,0.992,7.608-2.313,9.729-10.152C228.644,469.473,224.474,459.079,224.474,459.079z"/>
					<path style="fill:none;stroke:#528669;stroke-width:3;stroke-linecap:round;stroke-miterlimit:10;" d="M218.035,480.261
						c0,0-2.926,8.689,0.102,17.024"/>
				</g>
				<g>
					<path style="fill:none;stroke:#528669;stroke-width:3;stroke-linecap:round;stroke-miterlimit:10;" d="M777.268,330.306
						c0,0-99.065-45.062-89.156-139.682"/>
					<path style="fill:#528669;" d="M685.133,176.21c0,0,11.379,12.916,12.07,25.184c0.691,12.27-3.82,18.921-9.564,19.245
						c-5.744,0.324-10.543-5.803-11.234-18.071C675.711,190.299,685.133,176.21,685.133,176.21z"/>
					<path style="fill:#528669;" d="M736.351,204.536c0,0,1.913,17.107-4.558,27.554c-6.469,10.447-13.981,13.309-18.873,10.279
						c-4.891-3.029-5.308-10.801,1.162-21.247C720.553,210.675,736.351,204.536,736.351,204.536z"/>
					<path style="fill:#528669;" d="M643.541,247.155c0,0,17.213-0.107,26.924,7.422c9.711,7.53,11.768,15.3,8.242,19.847
						c-3.525,4.547-11.297,4.147-21.008-3.383C647.987,263.511,643.541,247.155,643.541,247.155z"/>
					<path style="fill:#528669;" d="M667.474,306.771c0,0,2.034-11.191,8.11-16.577c6.076-5.386,11.373-5.772,13.895-2.928
						c2.521,2.846,1.313,7.844-4.765,13.229C678.639,305.881,667.474,306.771,667.474,306.771z"/>
					<path style="fill:none;stroke:#528669;stroke-width:3;stroke-linecap:round;stroke-miterlimit:10;" d="M710.158,273.618
						c0,0-8.729-15.229,12.229-46.326"/>
					<path style="fill:none;stroke:#528669;stroke-width:3;stroke-linecap:round;stroke-miterlimit:10;" d="M662.17,261.172
						c0,0,32.443,28.801,60.324,27.693"/>
					<path style="fill:none;stroke:#528669;stroke-width:3;stroke-linecap:round;stroke-miterlimit:10;" d="M683.58,291.581
						c0,0,6.48-6.485,15.293-7.48"/>
					<path style="fill:#528669;" d="M655.428,231.089c0,0,9.817-5.743,17.863-4.638c8.043,1.105,11.784,4.874,11.267,8.64
						c-0.517,3.767-5.097,6.104-13.142,4.998C663.371,238.982,655.428,231.089,655.428,231.089z"/>
					<path style="fill:none;stroke:#528669;stroke-width:3;stroke-linecap:round;stroke-miterlimit:10;" d="M677.443,233.425
						c0,0,9.143,0.697,15.635,6.735"/>
					<path style="fill:#528669;" d="M734.447,256.589c0,0-9.117,6.8-11.24,14.636c-2.119,7.839-0.109,12.754,3.561,13.748
						c3.67,0.992,7.609-2.313,9.729-10.152C738.617,266.982,734.447,256.589,734.447,256.589z"/>
					<path style="fill:none;stroke:#528669;stroke-width:3;stroke-linecap:round;stroke-miterlimit:10;" d="M728.01,277.771
						c0,0-2.926,8.689,0.102,17.024"/>
				</g>
			</g>
			<g>
				<g>
					<path style="fill:#365E46;" d="M124.96,224.089c-13.181-6.034-25.825-6.65-28.237-1.378
						c-2.415,5.272,6.316,14.439,19.498,20.473c13.182,6.034,25.825,6.65,28.238,1.378
						C146.873,239.289,138.142,230.123,124.96,224.089z"/>
					<path style="fill:#365E46;" d="M99.68,195.641c-13.025,6.364-21.521,15.748-18.975,20.957
						c2.545,5.211,15.169,4.275,28.194-2.09c13.024-6.363,21.521-15.748,18.975-20.958
						C125.329,188.34,112.705,189.276,99.68,195.641z"/>
					<path style="fill:#365E46;" d="M51.234,189.018c-11.047,9.386-16.96,20.579-13.204,24.998
						c3.755,4.419,15.756,0.391,26.802-8.997c11.047-9.387,16.961-20.58,13.205-24.998
						C74.283,175.601,62.281,179.629,51.234,189.018z"/>
					<path style="fill:#365E46;" d="M5.176,195.32c-6.205,13.101-6.989,25.735-1.748,28.217c5.24,2.483,14.521-6.128,20.726-19.229
						c6.205-13.1,6.989-25.734,1.747-28.216C20.662,173.607,11.382,182.218,5.176,195.32z"/>
					<path style="fill:#365E46;" d="M42.887,223.567c-13.209-5.973-25.856-6.531-28.245-1.248
						c-2.39,5.284,6.384,14.411,19.592,20.382c13.208,5.974,25.855,6.532,28.244,1.249C64.869,238.666,56.096,229.54,42.887,223.567
						z"/>
					<path style="fill:#365E46;" d="M90.199,228.733c-10.195-10.305-21.805-15.352-25.926-11.273
						c-4.123,4.079,0.803,15.74,11,26.044c10.196,10.305,21.805,15.353,25.927,11.272C105.321,250.7,100.397,239.038,90.199,228.733
						z"/>
					<path style="fill:none;stroke:#365E46;stroke-width:3;stroke-linecap:round;stroke-miterlimit:10;" d="M-28.454,249.811
						c0,0,49.454-62.377,140.771-20.622"/>
				</g>
				<g>
					<path style="fill:#365E46;" d="M554.004,401.619c-12.907,6.598-21.232,16.135-18.592,21.297
						c2.639,5.163,15.244,3.999,28.152-2.6c12.908-6.6,21.231-16.135,18.593-21.299C579.518,393.854,566.912,395.02,554.004,401.619
						z"/>
					<path style="fill:#365E46;" d="M516.01,403.809c-3.085,14.165-0.992,26.649,4.673,27.882
						c5.667,1.235,12.762-9.249,15.846-23.414c3.085-14.163,0.991-26.648-4.675-27.882
						C526.188,379.159,519.094,389.644,516.01,403.809z"/>
					<path style="fill:#365E46;" d="M480.77,437.707c0.513,14.486,5.627,26.065,11.423,25.86
						c5.795-0.205,10.077-12.119,9.563-26.605c-0.514-14.487-5.627-26.068-11.422-25.861
						C484.539,411.305,480.256,423.218,480.77,437.707z"/>
					<path style="fill:#365E46;" d="M457.152,477.748c6.43,12.991,15.855,21.442,21.053,18.868
						c5.197-2.57,4.197-15.191-2.233-28.184c-6.428-12.991-15.853-21.442-21.051-18.869
						C449.723,452.134,450.723,464.753,457.152,477.748z"/>
					<path style="fill:#365E46;" d="M502.698,465.681c-12.877,6.659-21.158,16.234-18.495,21.384
						c2.663,5.152,15.264,3.93,28.14-2.73c12.877-6.657,21.158-16.232,18.495-21.383
						C528.175,457.799,515.575,459.022,502.698,465.681z"/>
					<path style="fill:#365E46;" d="M536.091,431.769c-14.406,1.607-25.566,7.585-24.921,13.348
						c0.643,5.764,12.846,9.131,27.252,7.521c14.407-1.608,25.566-7.585,24.921-13.349
						C562.701,433.527,550.499,430.159,536.091,431.769z"/>
					<path style="fill:none;stroke:#365E46;stroke-width:3;stroke-linecap:round;stroke-miterlimit:10;" d="M479.046,537.922
						c0,0-18.267-77.478,71.119-123.223"/>
				</g>
				<g>
					<path style="fill:#365E46;" d="M653.215,67.326c6.395,13.009,15.8,21.483,21.003,18.924c5.203-2.558,4.237-15.18-2.158-28.19
						c-6.396-13.01-15.8-21.482-21.004-18.924C645.852,41.694,646.818,54.316,653.215,67.326z"/>
					<path style="fill:#365E46;" d="M654.808,105.35c14.115,3.307,26.631,1.41,27.952-4.235c1.324-5.647-9.048-12.905-23.162-16.211
						c-14.113-3.307-26.63-1.409-27.952,4.237C630.321,94.786,640.693,102.044,654.808,105.35z"/>
					<path style="fill:#365E46;" d="M688.149,141.117c14.493-0.285,26.15-5.217,26.036-11.016
						c-0.114-5.797-11.959-10.266-26.452-9.979c-14.493,0.286-26.153,5.217-26.037,11.015
						C661.81,136.935,673.654,141.404,688.149,141.117z"/>
					<path style="fill:#365E46;" d="M727.815,165.36c13.09-6.225,21.688-15.517,19.195-20.754
						c-2.488-5.237-15.123-4.435-28.215,1.791c-13.091,6.223-21.689,15.515-19.197,20.752
						C702.088,172.387,714.721,171.585,727.815,165.36z"/>
					<path style="fill:#365E46;" d="M716.464,119.631c6.456,12.979,15.9,21.41,21.091,18.828c5.193-2.582,4.169-15.2-2.289-28.179
						c-6.454-12.979-15.898-21.41-21.09-18.828C708.982,94.034,710.008,106.651,716.464,119.631z"/>
					<path style="fill:#365E46;" d="M683.08,85.71c1.381,14.43,7.183,25.683,12.955,25.127c5.772-0.552,9.331-12.701,7.947-27.13
						c-1.382-14.431-7.183-25.683-12.956-25.127C685.256,59.131,681.696,71.278,683.08,85.71z"/>
					<path style="fill:none;stroke:#365E46;stroke-width:3;stroke-linecap:round;stroke-miterlimit:10;" d="M788.325,144.414
						c0,0-77.756,17.049-122.092-73.044"/>
				</g>
				<g>
					<path style="fill:#365E46;" d="M240.952,40.888c14.49,0.425,26.376-3.931,26.545-9.727c0.17-5.795-11.441-10.839-25.932-11.263
						c-14.49-0.424-26.375,3.932-26.545,9.728C214.85,35.422,226.461,40.465,240.952,40.888z"/>
					<path style="fill:#365E46;" d="M275.315,57.247c9.519-10.935,13.69-22.886,9.316-26.692
						c-4.374-3.809-15.637,1.97-25.155,12.904c-9.518,10.933-13.689,22.886-9.315,26.692
						C254.534,73.96,265.797,68.181,275.315,57.247z"/>
					<path style="fill:#365E46;" d="M322.516,44.48c6.52-12.947,7.607-25.558,2.426-28.166c-5.179-2.608-14.664,5.776-21.182,18.724
						c-6.519,12.948-7.608,25.56-2.427,28.167C306.511,65.814,315.997,57.431,322.516,44.48z"/>
					<path style="fill:#365E46;" d="M362.484,20.738c0.612-14.481-3.586-26.424-9.381-26.668
						c-5.792-0.247-10.987,11.298-11.6,25.782c-0.615,14.481,3.583,26.425,9.377,26.669
						C356.676,46.769,361.87,35.225,362.484,20.738z"/>
					<path style="fill:#365E46;" d="M316.749,9.408c14.492,0.357,26.359-4.054,26.501-9.85c0.144-5.798-11.491-10.788-25.983-11.143
						c-14.491-0.358-26.358,4.052-26.5,9.849C290.623,4.062,302.257,9.051,316.749,9.408z"/>
					<path style="fill:#365E46;" d="M271.161,23.074c13.403,5.521,26.063,5.65,28.269,0.287c2.21-5.362-6.869-14.184-20.272-19.703
						c-13.405-5.521-26.063-5.65-28.27-0.286C248.678,8.731,257.754,17.554,271.161,23.074z"/>
					<path style="fill:none;stroke:#365E46;stroke-width:3;stroke-linecap:round;stroke-miterlimit:10;" d="M372.238-42.547
						c0,0-21.258,76.712-121.627,73.815"/>
				</g>
			</g>
			<g>
				<g>
					<g>
						<path style="fill:#39655F;" d="M743.959,419.418c-4.927,1.939-8.006,3.151-8.006,3.151s1.3-12.96-4.885-28.665
							c-3.694,1.455-7.082,2.788-7.082,2.788s-17.197-27.74-27.701-24.288c-0.001-0.004-0.004-0.01-0.006-0.014
							c-0.051,0.021-0.101,0.045-0.15,0.067c-0.052,0.019-0.106,0.033-0.157,0.054c0.002,0.004,0.005,0.01,0.006,0.014
							c-10.038,4.635-3.708,36.655-3.708,36.655s-3.388,1.333-7.083,2.789c6.184,15.703,15.969,24.3,15.969,24.3
							s-3.079,1.213-8.006,3.151c6.118,9.257,24.639,37.515,41.493,31.314c0.001,0.002,0.003,0.01,0.003,0.01
							c0.053-0.02,0.101-0.044,0.152-0.065c0.052-0.019,0.104-0.035,0.156-0.056l-0.003-0.009
							C751.51,463.66,745.793,430.361,743.959,419.418z"/>
						<path style="fill:none;stroke:#39655F;stroke-width:3;stroke-linecap:round;stroke-miterlimit:10;" d="M700.811,386.611
							c0,0,45.916,133.793,73.741,136.71"/>
					</g>
					<g>
						<path style="fill:#39655F;" d="M710.834,466.319c-1.126,2.522-1.83,4.101-1.83,4.101s-4.253-5.304-12.297-8.893
							c-0.844,1.893-1.619,3.628-1.619,3.628s-16.545-4.048-19.196,1.077c-0.003-0.001-0.006-0.002-0.008-0.003
							c-0.012,0.026-0.021,0.053-0.031,0.08c-0.013,0.026-0.027,0.052-0.039,0.077c0.003,0.001,0.006,0.002,0.007,0.003
							c-2.045,5.396,12.018,15.01,12.018,15.01s-0.775,1.734-1.62,3.628c8.044,3.589,14.831,3.215,14.831,3.215
							s-0.704,1.577-1.831,4.101c5.662,1.212,22.891,4.969,26.902-3.502c0,0.001,0.005,0.004,0.005,0.004
							c0.013-0.028,0.021-0.054,0.033-0.081c0.012-0.025,0.025-0.052,0.037-0.077l-0.004-0.003
							C729.817,480.04,715.518,469.726,710.834,466.319z"/>
						<path style="fill:none;stroke:#39655F;stroke-width:3;stroke-linecap:round;stroke-miterlimit:10;" d="M682.769,469.87
							c0,0,66.007,33.056,77.439,23.972"/>
					</g>
				</g>
				<g>
					<g>
						<path style="fill:#39655F;" d="M449.453,70.238c5.274-0.461,8.571-0.748,8.571-0.748s-4.928,12.057-3.46,28.872
							c3.956-0.346,7.581-0.662,7.581-0.662s8.61,31.483,19.661,31.157c0,0.003,0.001,0.011,0.001,0.015
							c0.055-0.005,0.111-0.014,0.165-0.021c0.054-0.003,0.111-0.002,0.165-0.006c0-0.004-0.002-0.011-0.001-0.016
							c10.94-1.592,13.968-34.091,13.968-34.091s3.626-0.315,7.583-0.66c-1.467-16.815-8.407-27.837-8.407-27.837
							s3.298-0.288,8.571-0.747c-3.236-10.614-12.968-42.968-30.889-41.811c0-0.002,0-0.011,0-0.011
							c-0.056,0.004-0.109,0.015-0.163,0.02c-0.057,0.003-0.111,0.005-0.167,0.01v0.008
							C454.782,25.673,450.804,59.225,449.453,70.238z"/>
						<path style="fill:none;stroke:#39655F;stroke-width:3;stroke-linecap:round;stroke-miterlimit:10;" d="M481.502,113.95
							c0,0-6.016-141.324-31.866-152.025"/>
					</g>
					<g>
						<path style="fill:#39655F;" d="M494.536,34.678c1.797-2.098,2.921-3.411,2.921-3.411s2.57,6.293,9.264,12.021
							c1.346-1.576,2.583-3.019,2.583-3.019s14.713,8.581,18.711,4.42c0.002,0.001,0.006,0.003,0.006,0.005
							c0.021-0.023,0.035-0.045,0.053-0.067c0.02-0.023,0.043-0.042,0.06-0.063c-0.002-0.001-0.005-0.003-0.004-0.006
							c3.493-4.592-7.26-17.805-7.26-17.805s1.236-1.441,2.583-3.017c-6.691-5.726-13.306-7.295-13.306-7.295
							s1.123-1.314,2.921-3.413c-5.085-2.769-20.536-11.267-26.788-4.284c-0.001,0-0.004-0.006-0.004-0.006
							c-0.021,0.024-0.036,0.047-0.055,0.07c-0.019,0.02-0.04,0.042-0.058,0.062l0.002,0.005
							C480.233,16.131,491.015,30.083,494.536,34.678z"/>
						<path style="fill:none;stroke:#39655F;stroke-width:3;stroke-linecap:round;stroke-miterlimit:10;" d="M522.454,39.247
							c0,0-53.898-50.444-67.439-44.983"/>
					</g>
				</g>
				<g>
					<g>
						<path style="fill:#39655F;" d="M19.414,377.323c4.134-3.309,6.717-5.376,6.717-5.376s2.587,12.766,13.136,25.942
							c3.1-2.482,5.942-4.757,5.942-4.757s24.626,21.421,33.641,15.02c0.002,0.003,0.007,0.008,0.01,0.011
							c0.042-0.034,0.083-0.072,0.124-0.108c0.044-0.033,0.092-0.063,0.134-0.098c-0.003-0.003-0.008-0.008-0.01-0.012
							c8.221-7.394-7.288-36.114-7.288-36.114s2.843-2.274,5.943-4.757c-10.547-13.176-22.436-18.497-22.436-18.497
							s2.583-2.068,6.717-5.376c-8.58-7.036-34.623-28.56-48.893-17.655c-0.001-0.002-0.006-0.009-0.006-0.009
							c-0.044,0.034-0.083,0.071-0.126,0.107c-0.044,0.033-0.089,0.065-0.133,0.1l0.005,0.007
							C-0.872,337.287,14.429,367.41,19.414,377.323z"/>
						<path style="fill:none;stroke:#39655F;stroke-width:3;stroke-linecap:round;stroke-miterlimit:10;" d="M70.328,395.917
							c0,0-83.397-114.253-110.842-108.818"/>
					</g>
					<g>
						<path style="fill:#39655F;" d="M37.202,322.728c0.331-2.742,0.537-4.458,0.537-4.458s5.63,3.811,14.375,4.863
							c0.247-2.058,0.475-3.944,0.475-3.944s17.002-1.022,18.021-6.701c0.003,0,0.006,0,0.008,0.001
							c0.003-0.029,0.004-0.057,0.006-0.086c0.004-0.029,0.011-0.058,0.015-0.085c-0.003,0-0.006-0.001-0.007-0.001
							c0.359-5.759-15.916-10.789-15.916-10.789s0.229-1.886,0.476-3.944c-8.745-1.052-15.119,1.31-15.119,1.31
							s0.207-1.715,0.538-4.459c-5.768,0.516-23.337,2.017-24.667,11.295c-0.001-0.001-0.006-0.003-0.006-0.003
							c-0.004,0.031-0.004,0.058-0.008,0.088c-0.004,0.027-0.009,0.057-0.013,0.084l0.004,0.002
							C15.013,315.229,31.722,320.858,37.202,322.728z"/>
						<path style="fill:none;stroke:#39655F;stroke-width:3;stroke-linecap:round;stroke-miterlimit:10;" d="M62.965,311.044
							c0,0-72.827-12.076-81.064-0.021"/>
					</g>
				</g>
			</g>
			<g>
				<g>
					<path style="fill:#FAC53D;" d="M39.765,257.193c-3.021,4.978-7.486,7.788-9.974,6.278c-2.489-1.511-2.058-6.769,0.962-11.748
						c3.021-4.976,7.486-7.786,9.975-6.276C43.217,246.958,42.786,252.217,39.765,257.193z"/>
					<path style="fill:#FAC53D;" d="M38.075,273.425c-5.565-1.711-9.38-5.354-8.524-8.137c0.856-2.784,6.062-3.649,11.626-1.936
						c5.564,1.711,9.381,5.357,8.525,8.138C48.844,274.272,43.639,275.14,38.075,273.425z"/>
					<path style="fill:#FAC53D;" d="M41.803,265.388c-5.393,2.196-10.654,1.791-11.754-0.904c-1.097-2.697,2.383-6.664,7.776-8.859
						c5.391-2.195,10.654-1.792,11.751,0.905C50.674,259.224,47.194,263.192,41.803,265.388z"/>
					<path style="fill:#39655F;" d="M28.537,257.099c0,0,5.455,5.883,4.463,13.901C25.068,271.356,19.593,263.998,28.537,257.099z"
						/>
				</g>
				<path style="fill:none;stroke:#39655F;stroke-width:2;stroke-miterlimit:10;" d="M26.503,265.532
					c0,0-36.835,13.21-38.154,36.452"/>
				<path style="fill:none;stroke:#39655F;stroke-width:2;stroke-miterlimit:10;" d="M5.439,250.239c0,0-11.772,13.191-7.289,32.479
					"/>
				<g>
					<path style="fill:#FAC53D;" d="M7.148,243.653c0.297,4.571-1.317,8.398-3.601,8.549c-2.288,0.148-4.382-3.438-4.68-8.011
						c-0.298-4.574,1.316-8.401,3.602-8.549C4.755,235.494,6.85,239.08,7.148,243.653z"/>
					<path style="fill:#FAC53D;" d="M13.38,254.884c-4.362,1.405-8.468,0.776-9.171-1.402c-0.703-2.182,2.264-5.09,6.626-6.494
						c4.361-1.406,8.467-0.777,9.17,1.404C20.708,250.572,17.74,253.48,13.38,254.884z"/>
					<path style="fill:#FAC53D;" d="M12.156,248.018c-2.487,3.849-6.061,5.96-7.987,4.719c-1.923-1.244-1.469-5.373,1.018-9.222
						c2.486-3.849,6.064-5.96,7.989-4.718C15.099,240.04,14.643,244.169,12.156,248.018z"/>
					<path style="fill:#39655F;" d="M-0.137,248.658c0,0,6.172,1.33,9.148,6.95C4.057,259.418-2.794,257.142-0.137,248.658z"/>
				</g>
				<path style="fill:none;stroke:#39655F;stroke-width:2;stroke-miterlimit:10;" d="M-6.342,287.867c0,0,10.61,5.244,25.238,0.562"
					/>
				<g>
					<path style="fill:#FAC53D;" d="M22.989,284.022c-2.697,3.706-6.384,5.616-8.234,4.268c-1.855-1.35-1.17-5.445,1.527-9.15
						c2.697-3.705,6.385-5.615,8.237-4.266C26.372,276.225,25.688,280.318,22.989,284.022z"/>
					<path style="fill:#FAC53D;" d="M20.595,296.645c-4.251-1.712-7.004-4.821-6.148-6.948c0.854-2.123,4.994-2.462,9.245-0.751
						c4.251,1.711,7.005,4.821,6.149,6.946C28.986,298.019,24.847,298.355,20.595,296.645z"/>
					<path style="fill:#FAC53D;" d="M24.048,290.584c-4.375,1.367-8.474,0.702-9.158-1.484c-0.683-2.188,2.307-5.068,6.681-6.435
						c4.375-1.368,8.474-0.702,9.158,1.484C31.412,286.334,28.42,289.216,24.048,290.584z"/>
					<path style="fill:#39655F;" d="M14.19,283.209c0,0,3.892,4.973,2.585,11.197C10.529,294.162,6.72,288.029,14.19,283.209z"/>
				</g>
			</g>
			<g>
				<g>
					<g>
						<path style="fill:#FAC53D;" d="M113.786,451.054c3.858,4.361,5.217,9.46,3.037,11.389c-2.181,1.929-7.075-0.043-10.933-4.404
							c-3.857-4.36-5.216-9.459-3.036-11.388C105.034,444.721,109.929,446.693,113.786,451.054z"/>
						<path style="fill:#FAC53D;" d="M128.786,457.482c-3.285,4.807-7.898,7.369-10.3,5.727c-2.404-1.644-1.688-6.871,1.6-11.678
							c3.286-4.806,7.898-7.369,10.301-5.726C132.79,447.448,132.074,452.677,128.786,457.482z"/>
						<path style="fill:#FAC53D;" d="M122.215,451.539c0.498,5.801-1.45,10.705-4.35,10.955c-2.9,0.248-5.656-4.252-6.154-10.053
							c-0.499-5.801,1.449-10.705,4.349-10.954C118.961,441.238,121.716,445.738,122.215,451.539z"/>
						<path style="fill:#39655F;" d="M110.366,461.749c0,0,7.235-3.466,14.599-0.14C122.952,469.29,114.301,472.336,110.366,461.749
							z"/>
					</g>
					<path style="fill:none;stroke:#39655F;stroke-width:2;stroke-miterlimit:10;" d="M117.817,466.192
						c0,0,1.689,39.097,23.494,47.249"/>
					<path style="fill:none;stroke:#39655F;stroke-width:2;stroke-miterlimit:10;" d="M96.962,481.772
						c0,0,9.105,15.155,28.856,16.595"/>
					<g>
						<path style="fill:#FAC53D;" d="M91.179,478.188c4.455,1.072,7.631,3.748,7.096,5.975c-0.536,2.228-4.583,3.165-9.038,2.093
							c-4.456-1.072-7.632-3.748-7.096-5.977C82.678,478.052,86.724,477.115,91.179,478.188z"/>
						<path style="fill:#FAC53D;" d="M103.754,475.566c0.049,4.582-1.77,8.316-4.06,8.342c-2.292,0.024-4.188-3.672-4.236-8.254
							c-0.049-4.582,1.77-8.316,4.061-8.341C101.81,467.29,103.706,470.984,103.754,475.566z"/>
						<path style="fill:#FAC53D;" d="M96.835,474.698c2.939,3.517,3.894,7.558,2.137,9.027c-1.759,1.469-5.566-0.19-8.504-3.706
							c-2.939-3.517-3.894-7.559-2.137-9.028C90.088,469.522,93.896,471.183,96.835,474.698z"/>
						<path style="fill:#39655F;" d="M93.798,486.629c0,0,3.103-5.5,9.352-6.676C105.318,485.815,101.112,491.682,93.798,486.629z"
							/>
					</g>
					<path style="fill:none;stroke:#39655F;stroke-width:2;stroke-miterlimit:10;" d="M129.402,504.184
						c0,0,8.156-8.575,8.023-23.935"/>
					<g>
						<path style="fill:#FAC53D;" d="M134.433,475.031c2.738,3.675,3.469,7.764,1.631,9.132c-1.838,1.37-5.547-0.499-8.285-4.174
							c-2.738-3.675-3.468-7.763-1.63-9.132C127.986,469.488,131.695,471.356,134.433,475.031z"/>
						<path style="fill:#FAC53D;" d="M145.775,481.063c-2.894,3.553-6.682,5.259-8.458,3.811c-1.775-1.446-0.87-5.5,2.025-9.053
							c2.893-3.553,6.68-5.259,8.457-3.813C149.576,473.457,148.669,477.51,145.775,481.063z"/>
						<path style="fill:#FAC53D;" d="M141.011,475.968c0.009,4.583-1.842,8.301-4.133,8.306c-2.292,0.003-4.156-3.707-4.165-8.29
							c-0.009-4.582,1.842-8.301,4.134-8.305C139.138,467.674,141.002,471.386,141.011,475.968z"/>
						<path style="fill:#39655F;" d="M131.045,483.194c0,0,5.903-2.242,11.46,0.853
							C140.419,489.939,133.434,491.758,131.045,483.194z"/>
					</g>
				</g>
				<g>
					<g>
						<path style="fill:#FAC53D;" d="M185.737,42.25c-3.886-4.336-5.279-9.425-3.11-11.368c2.167-1.943,7.074-0.003,10.96,4.333
							c3.885,4.335,5.277,9.425,3.11,11.368C194.529,48.526,189.622,46.585,185.737,42.25z"/>
						<path style="fill:#FAC53D;" d="M170.695,35.919c3.254-4.829,7.849-7.421,10.263-5.794c2.415,1.627,1.732,6.86-1.524,11.688
							c-3.255,4.827-7.851,7.421-10.264,5.793C166.757,45.979,167.439,40.746,170.695,35.919z"/>
						<path style="fill:#FAC53D;" d="M177.305,41.819c-0.536-5.797,1.38-10.715,4.278-10.983c2.899-0.267,5.684,4.215,6.22,10.013
							c0.536,5.797-1.38,10.714-4.279,10.982C180.626,52.099,177.84,47.617,177.305,41.819z"/>
						<path style="fill:#39655F;" d="M189.088,31.533c0,0-7.213,3.512-14.599,0.234C176.452,24.073,185.084,20.971,189.088,31.533z"
							/>
					</g>
					<path style="fill:none;stroke:#39655F;stroke-width:2;stroke-miterlimit:10;" d="M181.609,27.138
						c0,0-1.944-39.084-23.801-47.095"/>
					<path style="fill:none;stroke:#39655F;stroke-width:2;stroke-miterlimit:10;" d="M202.36,11.424
						c0,0-9.204-15.096-28.962-16.407"/>
					<g>
						<path style="fill:#FAC53D;" d="M208.166,14.97c-4.46-1.043-7.655-3.699-7.134-5.929c0.524-2.232,4.563-3.194,9.025-2.151
							c4.463,1.043,7.656,3.699,7.134,5.93C216.669,15.05,212.628,16.013,208.166,14.97z"/>
						<path style="fill:#FAC53D;" d="M195.609,17.673c-0.079-4.582,1.716-8.328,4.005-8.368c2.292-0.039,4.213,3.645,4.29,8.227
							c0.079,4.582-1.716,8.327-4.007,8.367C197.608,25.937,195.687,22.254,195.609,17.673z"/>
						<path style="fill:#FAC53D;" d="M202.535,18.496c-2.962-3.497-3.944-7.531-2.197-9.013c1.75-1.479,5.567,0.155,8.529,3.651
							c2.962,3.497,3.943,7.533,2.195,9.014C209.315,23.628,205.495,21.993,202.535,18.496z"/>
						<path style="fill:#39655F;" d="M205.493,6.546c0,0-3.066,5.52-9.308,6.735C193.979,7.435,198.146,1.541,205.493,6.546z"/>
					</g>
					<path style="fill:none;stroke:#39655F;stroke-width:2;stroke-miterlimit:10;" d="M169.776-10.778c0,0-8.101,8.628-7.868,23.987
						"/>
					<g>
						<path style="fill:#FAC53D;" d="M164.935,18.406c-2.762-3.656-3.519-7.74-1.691-9.12c1.83-1.382,5.55,0.462,8.312,4.12
							c2.762,3.656,3.519,7.739,1.689,9.121C171.417,23.908,167.696,22.065,164.935,18.406z"/>
						<path style="fill:#FAC53D;" d="M153.553,12.45c2.872-3.572,6.647-5.302,8.434-3.867c1.785,1.434,0.905,5.495-1.966,9.065
							c-2.871,3.571-6.647,5.302-8.432,3.867C149.802,20.079,150.682,16.021,153.553,12.45z"/>
						<path style="fill:#FAC53D;" d="M158.35,17.513c-0.038-4.583,1.789-8.313,4.079-8.333c2.292-0.018,4.18,3.68,4.218,8.263
							c0.038,4.583-1.789,8.313-4.08,8.332C160.277,25.795,158.39,22.095,158.35,17.513z"/>
						<path style="fill:#39655F;" d="M168.27,10.222c0,0-5.888,2.28-11.465-0.778C158.851,3.539,165.826,1.674,168.27,10.222z"/>
					</g>
				</g>
				<g>
					<g>
						<path style="fill:#FAC53D;" d="M661.977,41.148c1.949-5.487,5.752-9.144,8.495-8.169c2.744,0.974,3.388,6.21,1.438,11.698
							c-1.948,5.485-5.753,9.142-8.495,8.168C660.672,51.871,660.029,46.633,661.977,41.148z"/>
						<path style="fill:#FAC53D;" d="M660.341,24.911c5.798,0.547,10.272,3.342,9.998,6.241c-0.274,2.899-5.196,4.802-10.993,4.252
							c-5.795-0.548-10.273-3.344-9.997-6.242C649.624,26.265,654.546,24.36,660.341,24.911z"/>
						<path style="fill:#FAC53D;" d="M658.322,33.537c4.834-3.244,10.069-3.914,11.691-1.497c1.622,2.418-0.982,7.008-5.817,10.252
							c-4.836,3.243-10.069,3.914-11.691,1.495C650.884,41.371,653.486,36.78,658.322,33.537z"/>
						<path style="fill:#39655F;" d="M672.991,38.964c0,0-6.534-4.654-7.189-12.707C673.498,24.299,680.352,30.396,672.991,38.964z"
							/>
					</g>
					<path style="fill:none;stroke:#39655F;stroke-width:2;stroke-miterlimit:10;" d="M673.274,30.294
						c0,0,33.392-20.404,29.972-43.43"/>
					<path style="fill:none;stroke:#39655F;stroke-width:2;stroke-miterlimit:10;" d="M697,41c0,0,8.854-15.304,0.554-33.282"/>
					<g>
						<path style="fill:#FAC53D;" d="M696.663,47.794c-1.218-4.416-0.414-8.491,1.793-9.101c2.211-0.608,4.987,2.478,6.207,6.897
							c1.219,4.418,0.414,8.493-1.795,9.101C700.66,55.3,697.882,52.213,696.663,47.794z"/>
						<path style="fill:#FAC53D;" d="M688.283,38.061c3.985-2.26,8.134-2.476,9.265-0.485c1.13,1.993-1.186,5.443-5.173,7.702
							c-3.985,2.261-8.133,2.478-9.264,0.484C681.981,43.769,684.297,40.321,688.283,38.061z"/>
						<path style="fill:#FAC53D;" d="M690.873,44.536c1.654-4.274,4.728-7.065,6.864-6.241c2.137,0.829,2.527,4.964,0.873,9.237
							c-1.653,4.274-4.729,7.066-6.865,6.24C689.609,52.945,689.218,48.809,690.873,44.536z"/>
						<path style="fill:#39655F;" d="M702.781,41.417c0,0-6.314-0.052-10.367-4.952C696.493,31.731,703.663,32.572,702.781,41.417z"
							/>
					</g>
					<path style="fill:none;stroke:#39655F;stroke-width:2;stroke-miterlimit:10;" d="M700.909,1.765c0,0-11.452-2.985-24.828,4.565
						"/>
					<g>
						<path style="fill:#FAC53D;" d="M672.966,11.475c1.889-4.175,5.113-6.793,7.199-5.848c2.09,0.946,2.249,5.095,0.358,9.271
							c-1.89,4.174-5.113,6.792-7.201,5.847C671.234,19.797,671.073,15.649,672.966,11.475z"/>
						<path style="fill:#FAC53D;" d="M672.751-1.371c4.511,0.814,7.836,3.301,7.431,5.558c-0.406,2.252-4.393,3.423-8.901,2.61
							c-4.51-0.813-7.836-3.301-7.43-5.555C664.257-1.015,668.242-2.184,672.751-1.371z"/>
						<path style="fill:#FAC53D;" d="M670.6,5.264c4.007-2.225,8.155-2.405,9.269-0.403c1.112,2.004-1.232,5.431-5.238,7.655
							c-4.006,2.227-8.155,2.406-9.269,0.404C664.249,10.919,666.595,7.491,670.6,5.264z"/>
						<path style="fill:#39655F;" d="M681.747,10.488c0,0-4.819-4.081-4.801-10.44C683.11-0.979,688.085,4.253,681.747,10.488z"/>
					</g>
				</g>
				<g>
					<g>
						<path style="fill:#FAC53D;" d="M734.674,324.496c3.494,4.657,4.44,9.848,2.111,11.595c-2.329,1.747-7.048-0.611-10.544-5.268
							c-3.493-4.656-4.438-9.848-2.109-11.595C726.46,317.479,731.18,319.839,734.674,324.496z"/>
						<path style="fill:#FAC53D;" d="M749.108,332.109c-3.661,4.527-8.463,6.711-10.727,4.88c-2.265-1.831-1.129-6.984,2.534-11.511
							c3.66-4.526,8.465-6.711,10.728-4.881C753.905,322.431,752.771,327.584,749.108,332.109z"/>
						<path style="fill:#FAC53D;" d="M743.037,325.656c0.03,5.823-2.306,10.555-5.217,10.571c-2.911,0.014-5.297-4.693-5.326-10.516
							c-0.029-5.821,2.306-10.555,5.217-10.568C740.621,315.128,743.008,319.835,743.037,325.656z"/>
						<path style="fill:#39655F;" d="M730.404,334.881c0,0,7.491-2.871,14.563,1.035
							C742.345,343.41,733.476,345.751,730.404,334.881z"/>
					</g>
					<path style="fill:none;stroke:#39655F;stroke-width:2;stroke-miterlimit:10;" d="M737.474,339.909
						c0,0-1.459,39.105,19.619,48.985"/>
					<path style="fill:none;stroke:#39655F;stroke-width:2;stroke-miterlimit:10;" d="M715.435,353.762
						c0,0,7.858,15.838,27.428,18.86"/>
					<g>
						<path style="fill:#FAC53D;" d="M709.96,349.724c4.352,1.427,7.304,4.351,6.593,6.526c-0.715,2.178-4.822,2.786-9.178,1.359
							c-4.356-1.427-7.307-4.351-6.592-6.527C701.496,348.905,705.604,348.297,709.96,349.724z"/>
						<path style="fill:#FAC53D;" d="M722.704,348.122c-0.32,4.571-2.434,8.147-4.718,7.989c-2.286-0.16-3.881-3.997-3.559-8.568
							c0.319-4.571,2.432-8.147,4.718-7.987C721.432,339.716,723.024,343.553,722.704,348.122z"/>
						<path style="fill:#FAC53D;" d="M715.876,346.701c2.646,3.741,3.274,7.845,1.405,9.17c-1.871,1.321-5.533-0.638-8.18-4.379
							c-2.646-3.74-3.273-7.848-1.403-9.171C709.568,340.999,713.23,342.96,715.876,346.701z"/>
						<path style="fill:#39655F;" d="M711.892,358.349c0,0,3.533-5.232,9.857-5.901C723.44,358.463,718.775,363.974,711.892,358.349
							z"/>
					</g>
					<path style="fill:none;stroke:#39655F;stroke-width:2;stroke-miterlimit:10;" d="M745.969,378.71c0,0,8.818-7.894,9.921-23.213
						"/>
					<g>
						<path style="fill:#FAC53D;" d="M753.325,350.057c2.435,3.883,2.834,8.017,0.894,9.231c-1.943,1.219-5.489-0.942-7.924-4.825
							c-2.434-3.883-2.833-8.017-0.891-9.233C747.348,344.013,750.893,346.173,753.325,350.057z"/>
						<path style="fill:#FAC53D;" d="M764.147,356.979c-3.172,3.308-7.083,4.704-8.738,3.118c-1.652-1.583-0.425-5.552,2.746-8.859
							c3.171-3.309,7.083-4.705,8.736-3.12C768.548,349.704,767.318,353.671,764.147,356.979z"/>
						<path style="fill:#FAC53D;" d="M759.809,351.518c-0.36,4.569-2.504,8.126-4.788,7.946c-2.285-0.181-3.845-4.028-3.483-8.597
							c0.359-4.569,2.504-8.126,4.788-7.946C758.607,343.101,760.167,346.95,759.809,351.518z"/>
						<path style="fill:#39655F;" d="M749.293,357.92c0,0,6.064-1.76,11.354,1.772C758.095,365.397,750.984,366.647,749.293,357.92z
							"/>
					</g>
				</g>
				<g>
					<g>
						<path style="fill:#FAC53D;" d="M277.775,466.918c-3.207,4.535-7.645,6.911-9.912,5.308c-2.268-1.603-1.505-6.58,1.702-11.114
							c3.207-4.534,7.645-6.911,9.913-5.308C281.744,457.407,280.982,462.384,277.775,466.918z"/>
						<path style="fill:#FAC53D;" d="M275.082,482.253c-5.182-2.002-8.569-5.726-7.568-8.316c1.001-2.59,6.012-3.066,11.193-1.064
							c5.181,2.002,8.569,5.726,7.567,8.316C285.274,483.778,280.263,484.255,275.082,482.253z"/>
						<path style="fill:#FAC53D;" d="M279.166,474.851c-5.279,1.73-10.259,0.993-11.123-1.645c-0.864-2.641,2.712-6.182,7.991-7.911
							c5.278-1.729,10.257-0.993,11.123,1.646C288.021,469.58,284.443,473.122,279.166,474.851z"/>
						<path style="fill:#39655F;" d="M267.096,466.078c0,0,4.799,5.962,3.319,13.526
							C262.842,479.413,258.124,472.046,267.096,466.078z"/>
					</g>
					<path style="fill:none;stroke:#39655F;stroke-width:2;stroke-miterlimit:10;" d="M264.598,473.968
						c0,0-35.938,10.109-38.746,32.139"/>
					<path style="fill:none;stroke:#39655F;stroke-width:2;stroke-miterlimit:10;" d="M245.575,458.005
						c0,0-12.085,11.766-9.106,30.422"/>
					<g>
						<path style="fill:#FAC53D;" d="M247.639,451.852c-0.022,4.372-1.813,7.905-3.998,7.895c-2.187-0.011-3.94-3.564-3.917-7.936
							c0.023-4.372,1.813-7.906,4-7.895C245.909,443.928,247.663,447.48,247.639,451.852z"/>
						<path style="fill:#FAC53D;" d="M252.82,462.956c-4.245,1.047-8.109,0.174-8.633-1.948c-0.523-2.122,2.495-4.69,6.739-5.737
							c4.245-1.045,8.109-0.172,8.632,1.949C260.082,459.343,257.065,461.911,252.82,462.956z"/>
						<path style="fill:#FAC53D;" d="M252.115,456.341c-2.624,3.497-6.168,5.268-7.917,3.957c-1.749-1.313-1.039-5.211,1.584-8.707
							c2.624-3.497,6.169-5.268,7.917-3.956C255.448,448.946,254.739,452.845,252.115,456.341z"/>
						<path style="fill:#39655F;" d="M240.373,456.128c0,0,5.786,1.68,8.243,7.227C243.645,466.647,237.278,464.023,240.373,456.128
							z"/>
					</g>
					<path style="fill:none;stroke:#39655F;stroke-width:2;stroke-miterlimit:10;" d="M231.848,493.026
						c0,0,9.745,5.699,23.979,2.223"/>
					<g>
						<path style="fill:#FAC53D;" d="M260.018,491.329c-2.814,3.346-6.451,4.917-8.124,3.51c-1.673-1.408-0.747-5.26,2.067-8.605
							c2.814-3.346,6.451-4.916,8.124-3.509C263.758,484.132,262.833,487.984,260.018,491.329z"/>
						<path style="fill:#FAC53D;" d="M256.896,503.179c-3.931-1.912-6.343-5.056-5.388-7.021c0.956-1.966,4.919-2.01,8.85-0.098
							c3.932,1.911,6.343,5.056,5.388,7.021C264.789,505.047,260.827,505.091,256.896,503.179z"/>
						<path style="fill:#FAC53D;" d="M260.586,497.643c-4.253,1.009-8.111,0.102-8.615-2.023c-0.504-2.128,2.535-4.669,6.789-5.679
							c4.253-1.009,8.11-0.102,8.615,2.025C267.878,494.092,264.839,496.634,260.586,497.643z"/>
						<path style="fill:#39655F;" d="M251.698,489.966c0,0,3.372,4.992,1.712,10.828
							C247.483,500.146,244.268,494.056,251.698,489.966z"/>
					</g>
				</g>
			</g>
			<g>
				<path style="fill:#4A7C74;" d="M370.666,64.658c11.195-3.958,24.105,3.675,24.105,3.675s-5.242,14.051-16.436,18.01
					c-11.195,3.958-24.104-3.675-24.104-3.675S359.472,68.616,370.666,64.658z"/>
				<path style="fill:#4A7C74;" d="M568.858,159.537c-7.527-9.184-4.735-23.919-4.735-23.919s14.997,0.156,22.523,9.338
					c7.528,9.184,4.735,23.918,4.735,23.918S576.385,168.72,568.858,159.537z"/>
				<path style="fill:#4A7C74;" d="M593.619,187.229c6.989-9.6,21.952-10.614,21.952-10.614s3.631,14.552-3.357,24.15
					c-6.989,9.601-21.951,10.613-21.951,10.613S586.632,196.828,593.619,187.229z"/>
				<path style="fill:#4A7C74;" d="M163.499,317.49c11.195-3.958,24.105,3.676,24.105,3.676s-5.242,14.051-16.437,18.01
					c-11.195,3.958-24.104-3.676-24.104-3.676S152.305,321.449,163.499,317.49z"/>
				<path style="fill:#4A7C74;" d="M114.656,306.37c-6.92-9.649-3.186-24.175-3.186-24.175s14.955,1.12,21.876,10.768
					c6.92,9.649,3.186,24.174,3.186,24.174S121.577,316.018,114.656,306.37z"/>
				<path style="fill:#4A7C74;" d="M391.045,87.54c1.35-6.183,8.43-9.888,8.43-9.888s4.895,6.319,3.545,12.5
					c-1.35,6.182-8.431,9.887-8.431,9.887S389.695,93.722,391.045,87.54z"/>
				<path style="fill:#4A7C74;" d="M378.55,44.836c-3.431-5.317-1.064-12.95-1.064-12.95s7.932,0.987,11.362,6.304
					c3.431,5.317,1.063,12.95,1.063,12.95S381.979,50.153,378.55,44.836z"/>
				<path style="fill:#4A7C74;" d="M561.17,175.35c-6.3-0.599-10.826-7.185-10.826-7.185s5.688-5.616,11.986-5.017
					c6.3,0.6,10.825,7.187,10.825,7.187S567.469,175.95,561.17,175.35z"/>
				<path style="fill:#4A7C74;" d="M586.292,192.956c-4.516,4.433-12.468,3.654-12.468,3.654s-0.634-7.968,3.883-12.4
					c4.517-4.433,12.47-3.651,12.47-3.651S590.81,188.524,586.292,192.956z"/>
				<path style="fill:#4A7C74;" d="M155.346,300.359c1.35-6.182,8.43-9.887,8.43-9.887s4.895,6.318,3.545,12.5
					c-1.35,6.182-8.431,9.887-8.431,9.887S153.997,306.541,155.346,300.359z"/>
				<path style="fill:#4A7C74;" d="M178.057,298.789c5.725-2.694,12.975,0.666,12.975,0.666s-2.031,7.729-7.756,10.423
					c-5.725,2.694-12.976-0.667-12.976-0.667S172.331,301.482,178.057,298.789z"/>
				<path style="fill:#4A7C74;" d="M135.971,282.565c1.139-6.224,8.09-10.166,8.09-10.166s5.105,6.148,3.966,12.372
					c-1.139,6.224-8.091,10.166-8.091,10.166S134.831,288.789,135.971,282.565z"/>
				<path style="fill:#4A7C74;" d="M633.639,370.351c-11.844-0.839-20.635-12.991-20.635-12.991s10.414-10.791,22.259-9.953
					c11.844,0.839,20.634,12.99,20.634,12.99S645.482,371.188,633.639,370.351z"/>
				<path style="fill:#4A7C74;" d="M654.943,383.311c-3.705,5.13-11.675,5.701-11.675,5.701s-1.967-7.747,1.738-12.876
					c3.704-5.13,11.677-5.7,11.677-5.7S658.647,378.183,654.943,383.311z"/>
				<path style="fill:#4A7C74;" d="M633.438,386.622c-5.225,3.569-12.916,1.401-12.916,1.401s0.779-7.953,6.004-11.521
					c5.226-3.569,12.918-1.401,12.918-1.401S638.664,383.055,633.438,386.622z"/>
				<path style="fill:#4A7C74;" d="M314.849,331.847c-2.375-11.633,6.967-23.366,6.967-23.366s13.193,7.13,15.569,18.765
					c2.375,11.633-6.967,23.366-6.967,23.366S317.226,343.479,314.849,331.847z"/>
				<path style="fill:#4A7C74;" d="M516.094,307.358c-1.871-11.725,7.969-23.044,7.969-23.044s12.874,7.692,14.746,19.419
					c1.871,11.725-7.968,23.044-7.968,23.044S517.967,319.083,516.094,307.358z"/>
				<path style="fill:#4A7C74;" d="M364.47,352.09c11.826,1.053,20.396,13.36,20.396,13.36s-10.606,10.603-22.435,9.552
					c-11.826-1.054-20.396-13.361-20.396-13.361S352.644,351.04,364.47,352.09z"/>
				<path style="fill:#4A7C74;" d="M247.33,129.274c-10.605-5.338-14.036-19.938-14.036-19.938s13.768-5.946,24.376-0.609
					c10.605,5.339,14.035,19.939,14.035,19.939S257.936,134.609,247.33,129.274z"/>
				<path style="fill:#4A7C74;" d="M286.859,134.41c7.836-8.92,22.83-8.563,22.83-8.563s2.288,14.821-5.548,23.744
					c-7.837,8.919-22.83,8.563-22.83,8.563S279.025,143.331,286.859,134.41z"/>
				<path style="fill:#4A7C74;" d="M354.46,323.549c-0.051,6.329-6.219,11.409-6.219,11.409s-6.087-5.179-6.037-11.506
					c0.051-6.327,6.221-11.408,6.221-11.408S354.511,317.223,354.46,323.549z"/>
				<path style="fill:#4A7C74;" d="M377.263,347.891c-6.257,0.959-12.255-4.32-12.255-4.32s4.142-6.836,10.396-7.794
					c6.255-0.96,12.254,4.323,12.254,4.323S383.517,346.933,377.263,347.891z"/>
				<path style="fill:#4A7C74;" d="M262.484,149.236c-5.984,2.064-12.831-2.056-12.831-2.056s2.852-7.467,8.833-9.529
					c5.982-2.064,12.83,2.06,12.83,2.06S268.465,147.174,262.484,149.236z"/>
				<path style="fill:#4A7C74;" d="M292.582,120.436c-2.577,5.782-10.261,7.973-10.261,7.973s-3.51-7.181-0.935-12.959
					c2.575-5.781,10.264-7.97,10.264-7.97S295.158,114.658,292.582,120.436z"/>
				<path style="fill:#4A7C74;" d="M552.596,328.224c-6.256,0.959-12.254-4.32-12.254-4.32s4.142-6.836,10.394-7.794
					c6.256-0.96,12.254,4.323,12.254,4.323S558.85,327.266,552.596,328.224z"/>
			</g>
			<g>
				<g>
					<path style="fill:#EC4944;" d="M49.041,431.307c0,9.333-9.948,23.748-9.948,23.748s-9.949-14.415-9.949-23.748
						c0-9.334,4.454-10.056,9.949-10.056C44.586,421.251,49.041,421.973,49.041,431.307z"/>
					<path style="fill:#EC4944;" d="M22.881,434.92c8.083,4.669,15.593,20.49,15.593,20.49s-17.459,1.409-25.542-3.257
						c-8.083-4.669-6.48-8.886-3.734-13.645C11.947,433.75,14.798,430.254,22.881,434.92z"/>
					<path style="fill:#EC4944;" d="M12.931,459.382c8.085-4.665,25.541-3.258,25.541-3.258s-7.508,15.822-15.593,20.491
						c-8.083,4.665-10.935,1.168-13.683-3.589C6.453,468.268,4.848,464.051,12.931,459.382z"/>
					<path style="fill:#EC4944;" d="M29.141,480.23c0.001-9.335,9.949-23.748,9.949-23.748s9.95,14.413,9.948,23.748
						c0,9.333-4.454,10.056-9.948,10.056C33.597,490.284,29.141,489.565,29.141,480.23z"/>
					<path style="fill:#EC4944;" d="M55.301,476.616c-8.085-4.67-15.593-20.488-15.593-20.488s17.457-1.411,25.544,3.258
						c8.08,4.666,6.479,8.884,3.734,13.644C66.236,477.783,63.386,481.283,55.301,476.616z"/>
					<path style="fill:#EC4944;" d="M65.252,452.154c-8.087,4.667-25.54,3.26-25.54,3.26s7.505-15.824,15.591-20.492
						c8.083-4.665,10.935-1.168,13.685,3.589C71.73,443.268,73.336,447.486,65.252,452.154z"/>
					<path style="fill:#FAC53D;" d="M45.368,455.769c0,3.465-2.81,6.276-6.275,6.276c-3.467,0-6.276-2.811-6.276-6.276
						c0-3.467,2.81-6.276,6.276-6.276C42.558,449.492,45.368,452.302,45.368,455.769z"/>
				</g>
				<g>
					<path style="fill:#EC4944;" d="M123.577-10.172c0,9.333-9.948,23.748-9.948,23.748s-9.949-14.415-9.949-23.748
						c0-9.334,4.455-10.056,9.949-10.056C119.123-20.228,123.577-19.506,123.577-10.172z"/>
					<path style="fill:#EC4944;" d="M97.418-6.559c8.083,4.669,15.593,20.49,15.593,20.49s-17.458,1.409-25.541-3.257
						c-8.084-4.669-6.48-8.886-3.734-13.645C86.483-7.729,89.335-11.225,97.418-6.559z"/>
					<path style="fill:#EC4944;" d="M87.467,17.903c8.085-4.665,25.541-3.258,25.541-3.258s-7.508,15.822-15.593,20.491
						c-8.084,4.665-10.935,1.168-13.683-3.589C80.989,26.789,79.384,22.572,87.467,17.903z"/>
					<path style="fill:#EC4944;" d="M103.677,38.752c0.002-9.335,9.949-23.748,9.949-23.748s9.95,14.413,9.948,23.748
						c0,9.333-4.454,10.056-9.948,10.056C108.133,48.806,103.677,48.087,103.677,38.752z"/>
					<path style="fill:#EC4944;" d="M129.837,35.138c-8.085-4.67-15.593-20.488-15.593-20.488s17.457-1.411,25.543,3.258
						c8.08,4.666,6.479,8.884,3.734,13.644C140.772,36.305,137.922,39.805,129.837,35.138z"/>
					<path style="fill:#EC4944;" d="M139.788,10.676c-8.086,4.667-25.54,3.26-25.54,3.26s7.505-15.824,15.591-20.492
						c8.084-4.665,10.935-1.168,13.685,3.589C146.266,1.789,147.873,6.008,139.788,10.676z"/>
					<path style="fill:#FAC53D;" d="M119.904,14.29c0,3.465-2.81,6.276-6.275,6.276c-3.467,0-6.276-2.812-6.276-6.276
						c0-3.467,2.81-6.276,6.276-6.276C117.094,8.014,119.904,10.823,119.904,14.29z"/>
				</g>
				<g>
					<path style="fill:#EC4944;" d="M631.521-8.362c0,9.333-9.949,23.748-9.949,23.748s-9.948-14.415-9.948-23.748
						c0-9.334,4.454-10.056,9.948-10.056C627.066-18.418,631.521-17.696,631.521-8.362z"/>
					<path style="fill:#EC4944;" d="M605.361-4.749c8.084,4.669,15.594,20.49,15.594,20.49s-17.459,1.409-25.541-3.257
						c-8.084-4.669-6.48-8.886-3.734-13.645C594.428-5.919,597.279-9.415,605.361-4.749z"/>
					<path style="fill:#EC4944;" d="M595.412,19.713c8.084-4.665,25.541-3.258,25.541-3.258s-7.508,15.822-15.593,20.491
						c-8.083,4.665-10.935,1.168-13.683-3.589C588.934,28.599,587.328,24.382,595.412,19.713z"/>
					<path style="fill:#EC4944;" d="M611.621,40.562c0.002-9.335,9.949-23.748,9.949-23.748s9.95,14.413,9.948,23.748
						c0,9.333-4.454,10.056-9.948,10.056C616.078,50.615,611.621,49.896,611.621,40.562z"/>
					<path style="fill:#EC4944;" d="M637.781,36.947c-8.084-4.67-15.593-20.488-15.593-20.488s17.457-1.411,25.544,3.258
						c8.079,4.666,6.479,8.884,3.733,13.644C648.717,38.114,645.867,41.614,637.781,36.947z"/>
					<path style="fill:#EC4944;" d="M647.732,12.485c-8.087,4.667-25.541,3.26-25.541,3.26s7.506-15.824,15.592-20.492
						c8.084-4.665,10.936-1.168,13.685,3.589C654.211,3.599,655.816,7.817,647.732,12.485z"/>
					
						<ellipse transform="matrix(0.005 -1 1 0.005 602.3345 637.5827)" style="fill:#FAC53D;" cx="621.572" cy="16.1" rx="6.276" ry="6.275"/>
				</g>
			</g>
			<g>
				
					<line style="fill:none;stroke:#365E46;stroke-width:3;stroke-linecap:round;stroke-miterlimit:10;" x1="416.189" y1="477.204" x2="482.658" y2="543.672"/>
				<path style="fill:#FB9A94;" d="M409.469,428.302c0,0-9.6-9.729-18.086-1.245c-4.135,4.136-5.832,10.868-6.488,16.689
					c-5.723-0.155-11.633,1.079-15.962,5.408c-10.43,10.43,0.294,19.39,0.294,19.39c0.192,0.2,0.379,0.403,0.576,0.601
					c12.673,12.672,43.604,25.577,54.725,14.457c11.119-11.12-1.785-42.053-14.457-54.725
					C409.873,428.68,409.67,428.493,409.469,428.302z"/>
				<path style="fill:#365E46;" d="M423.852,483.921c0,0-22.275-6.953-37.006,7.778
					C403.816,506.313,417.369,495.588,423.852,483.921z"/>
				<path style="fill:#365E46;" d="M423.379,484.393c0,0-6.953-22.274,7.779-37.006
					C445.771,464.358,435.047,477.911,423.379,484.393z"/>
			</g>
			<g>
				
					<line style="fill:none;stroke:#365E46;stroke-width:3;stroke-linecap:round;stroke-miterlimit:10;" x1="85.833" y1="156.056" x2="-4" y2="183.734"/>
				<path style="fill:#FB9A94;" d="M132.203,172.98c0,0,13.089-3.938,9.557-15.405c-1.723-5.589-6.88-10.237-11.719-13.539
					c2.813-4.987,4.486-10.788,2.683-16.64c-4.343-14.096-17.277-8.806-17.277-8.806c-0.267,0.076-0.534,0.146-0.8,0.228
					c-17.127,5.277-42.997,26.586-38.367,41.616c4.631,15.028,38.008,18.084,55.134,12.808
					C131.68,173.16,131.94,173.067,132.203,172.98z"/>
				<path style="fill:#365E46;" d="M76.313,159.688c0,0,16.561-16.439,10.427-36.349C65.888,131.508,69.031,148.503,76.313,159.688z
					"/>
				<path style="fill:#365E46;" d="M76.117,159.05c0,0,22.941,4.268,29.075,24.179C83.357,188.211,76.391,172.394,76.117,159.05z"/>
			</g>
			<g>
				
					<line style="fill:none;stroke:#365E46;stroke-width:3;stroke-linecap:round;stroke-miterlimit:10;" x1="726.563" y1="50.562" x2="770.853" y2="133.473"/>
				<path style="fill:#FB9A94;" d="M734.341,1.815c0,0-6.36-12.1-16.944-6.446c-5.157,2.757-8.737,8.706-11.057,14.084
					c-5.432-1.81-11.445-2.347-16.846,0.538c-13.01,6.95-5.352,18.639-5.352,18.639c0.125,0.247,0.245,0.498,0.376,0.741
					c8.443,15.809,34.292,37.143,48.164,29.734c13.87-7.409,10.51-40.757,2.066-56.564C734.617,2.295,734.477,2.058,734.341,1.815z"
					/>
				<path style="fill:#365E46;" d="M731.943,59.215c0,0-19.294-13.126-37.669-3.309C706.268,74.818,722.352,68.495,731.943,59.215z"
					/>
				<path style="fill:#365E46;" d="M731.355,59.528c0,0-0.183-23.334,18.194-33.149C758.602,46.863,744.402,56.716,731.355,59.528z"
					/>
			</g>
			<g>
				<path style="fill:none;stroke:#528669;stroke-width:3;stroke-linecap:round;stroke-miterlimit:10;" d="M353,59
					c106-31,70.223,175.066,211,124c204-74,190,252,295-20"/>
				<path style="fill:none;stroke:#528669;stroke-width:3;stroke-linecap:round;stroke-miterlimit:10;" d="M150,256
					c0,0,16,59-38,116s-169,48-217,8"/>
				<path style="fill:none;stroke:#528669;stroke-width:3;stroke-linecap:round;stroke-miterlimit:10;" d="M578,432
					c65,0,102-34,80-88s-52,27,63-6"/>
				<path style="fill:none;stroke:#528669;stroke-width:3;stroke-linecap:round;stroke-miterlimit:10;" d="M314,376.334
					c0,0,65.81-82.285,167.5-66.334c51,8,50,49.5,33.5,45.5c-16.198-3.927,5.001-33.834,40.334-17.167"/>
				<path style="fill:none;stroke:#528669;stroke-width:3;stroke-linecap:round;stroke-miterlimit:10;" d="M271.5,111
					c12,20.5,13,74-55,85.5c-58.917,9.964-9.5-37.5,19.5,9"/>
			</g>
			<g>
				<g>
					<path style="fill:none;stroke:#528669;stroke-width:3;stroke-linecap:round;stroke-miterlimit:10;" d="M14.868,12.3
						c0,0-48.773-35.968-67.265-85.557"/>
					<path style="fill:#CF8599;" d="M28,7c0,0,24.463-9.79,29.911-2.401c5.446,7.389-1.818,16.291-21.748,14.767
						c17.278,3.628,22.147,10.02,18.438,16.325c-3.708,6.306-15.596,2.811-29.011-6.585c14.314,15.537,13.219,22.834,7.959,25.98
						c-5.259,3.146-14.898-9.899-18.955-23.158c3.382,16.77,2.449,24.428-3.648,24.266c-6.097-0.162-12.9-9.021-3.524-30.576
						C18.64,13.074,28,7,28,7z"/>
					<path style="fill:#528669;" d="M8.527,7.264L28,7c0,0-1.696,15.5-20.579,18.618L8.527,7.264z"/>
				</g>
				<g>
					<path style="fill:none;stroke:#528669;stroke-width:3;stroke-linecap:round;stroke-miterlimit:10;" d="M289.323,433.27
						c0,0,22.329,56.337,11.757,108.195"/>
					<path style="fill:#CF8599;" d="M275.376,430.811c0,0-25.936-4.648-26.645-13.801C248.024,407.858,258.9,404.153,275,416
						c-12.736-12.227-13.482-20.228-6.997-23.612c6.484-3.386,14.718,5.874,21.124,20.948c-3.916-20.759,0.878-26.371,7.005-26.253
						c6.128,0.115,7.397,16.285,3.818,29.682c6.011-16.017,10.857-22.02,15.944-18.654c5.086,3.366,6.166,14.483-13.201,27.804
						C286.533,430.615,275.376,430.811,275.376,430.811z"/>
					<path style="fill:#528669;" d="M292.035,440.899l-16.659-10.088c0,0,9.646-12.25,27.315-4.897L292.035,440.899z"/>
				</g>
				<g>
					<path style="fill:none;stroke:#528669;stroke-width:3;stroke-linecap:round;stroke-miterlimit:10;" d="M605.766,460.112
						c0,0-42.334,43.362-52.585,95.285"/>
					<path style="fill:#CF8599;" d="M619.58,463.225c0,0,25.722,5.716,29.906-2.454c4.185-8.171-4.421-15.785-23.845-11.065
						c16.468-6.367,20.242-13.461,15.565-19.086c-4.676-5.625-15.845-0.258-27.569,11.178c11.62-17.641,9.363-24.668,3.665-26.922
						c-5.698-2.258-13.107,12.171-14.973,25.911c0.634-17.097-1.523-24.504-7.514-23.361c-5.991,1.144-11.275,10.984,1.454,30.744
						C609.363,458.739,619.58,463.225,619.58,463.225z"/>
					<path style="fill:#528669;" d="M600.32,466.105l19.26-2.881c0,0-4.173-15.023-23.311-15.056L600.32,466.105z"/>
				</g>
				<g>
					<path style="fill:none;stroke:#528669;stroke-width:3;stroke-linecap:round;stroke-miterlimit:10;" d="M574.316,58.056
						c0,0-5.034-60.392-37.552-102.148"/>
					<path style="fill:#CF8599;" d="M562.916,66.455c0,0-21.167,15.691-17.735,24.205c3.433,8.514,14.823,7,23.98-10.769
						c-5.977,16.614-3.089,24.113,4.226,24.263C580.7,104.305,583.961,92.35,583,76c5.718,20.335,12.506,23.233,17.941,20.404
						c5.438-2.827-0.61-17.876-9.771-28.286c12.503,11.678,19.512,14.9,22.573,9.625c3.061-5.276-0.914-15.715-24.183-19.04
						C572.997,61.673,562.916,66.455,562.916,66.455z"/>
					<path style="fill:#528669;" d="M573.355,50.015l-10.439,16.44c0,0,14.084,6.687,26.645-7.751L573.355,50.015z"/>
				</g>
			</g>
		</g>
	</g>
	<g>
		<text transform="matrix(1 0 0 1 308.6479 221.3433)" style="fill:#FFFFF8; font-family:'Poppins-Bold'; font-size:38.8931px;">HELLO</text>
		<text transform="matrix(1 0 0 1 253.2983 276.6934)" style="fill:#FFFFF8; font-family:'Poppins-Bold'; font-size:57.9529px;">SPRING</text>
	</g>
</g>
</svg>
